<svg width="63" height="68" fill="none" xmlns="http://www.w3.org/2000/svg"><path d="M61.658 19.74c.42.461.474 1.138.15 1.68-.299.501-.556.934-.854 1.34-3.087 4.28-4.78 6.514-7.827 10.82-.772 1.084-2.64 4.401-3.358 5.539-.014.014-.014.027-.027.04-.65.976-2.248.908-2.763-.162 0 0 0-.014-.014-.014-.758-1.665-1.367-3.385-2.071-5.078-1.937-4.672-4.632-8.72-9.114-11.375-1.625-.961-1.652-1.665-.393-3.06.474-.515.948-1.043 1.463-1.503 4.97-4.428 8.396-9.9 10.955-15.993.163-.379.488-.677.84-.975a1.116 1.116 0 011.53.108c.338.353.65.732.84 1.152.42.975.528 2.071.785 3.114 1.381 5.674 4.455 10.197 9.127 13.677.257.19.487.433.731.69zM49.213 6.146C47.602 8.827 46.248 11.59 44.406 14c-1.882 2.451-4.238 4.537-6.392 6.798 5.471 3.277 8.64 8.464 10.55 14.828 2.803-5.796 6.675-10.4 10.928-14.706-6.717-5.119-8.315-7.434-10.279-14.774z" fill="#000"/><path d="M10.593 66.473C9.36 62.98 8.29 59.418 6.936 55.978c-1.327-3.33-3.304-6.296-6.148-8.585-1.042-.84-1.015-1.598-.162-2.546C5.42 39.634 9.103 33.73 11.744 27.162c.284-.704 1.042-1.828 1.57-1.828 1.436-.339 1.95 2.464 2.005 2.722 1.205 6.608 5.294 11.415 9.885 15.911 1.49 1.463 1.611 1.91.149 3.318-5.511 5.281-9.168 11.781-12.31 18.62-.988 2.383-2.301.988-2.45.568zM2.44 45.782c2.925 1.855 4.861 4.333 6.27 7.136 1.367 2.75 2.37 5.66 3.507 8.45 2.627-5.877 6.175-11.307 11.564-15.437-5.213-4.103-9.33-8.789-10.59-15.506-2.26 6.04-5.85 11.064-10.751 15.357z" fill="#81ADC8"/><path d="M47.602 51.902c-2.993 4.022-4.82 8.613-6.5 13.285-.108.298-.46 1.99-1.747 1.977-.365 0-.975-.582-1.205-1.043-1.016-2.072-1.652-4.387-2.939-6.256-1.516-2.22-3.602-4.05-5.362-6.094-.257-.298-.352-.975-.19-1.34.312-.678.867-1.22 1.3-1.842 2.208-3.25 4.374-6.527 6.65-9.723.473-.664 1.408-1.463 1.963-1.463 1.381-.013 1.652 1.07 1.896 1.842 1.11 3.548 3.02 6.514 5.795 8.965.99.92.46 1.53.34 1.692zm-15.207.935c3.223 2.288 5.416 5.592 6.743 9.29 1.964-3.603 3.968-7.273 6.027-11.064-2.763-1.91-4.686-5.471-5.566-8.098l-7.204 9.872z" fill="#CD4631"/></svg>