<svg width="112" height="98" fill="none" xmlns="http://www.w3.org/2000/svg"><path d="M14.516 35.966c-.19-1.205-3.19.061-3.8-1.725-.622-1.766 1.925-2.25 3.16-2.763 2.136-.903 4.437-1.503 6.712-1.832.888-.138 2.713-.05 2.897 1.256.123.827-.054 1.402-1.567 2.353-.808.498-1.23.776-2.988 1.429-.225.39.113 1.159.337 1.81C23.94 50.11 31.349 61.79 43.684 69.719c12.324 7.95 25.499 10.318 39.564 5.095 1.25-.45 2.74-.685 3.464-1.622.538-.706.431-1.289.23-3.333-.072-.642.404-1.826 1.404-2.16 1.674-.598 2.4.629 2.568 1.195 1.1 3.918 1.384 7.94 1.31 11.363-.223 1.018-1.079 1.462-1.777 1.632-.574.138-1.53-.465-1.991-1.019-.538-.649-.755-1.582-1.27-2.766-15.93 6.648-31.458 5.24-45.997-3.883-14.338-8.93-23.54-22.556-26.673-38.255z" fill="#000"/><path d="M80.043 45.157c2.91-5.175 8.937-7.22 13.46-4.582 3.937 2.3 5.13 8.357 2.54 12.934-2.474 4.33-8.618 6.126-12.894 3.736-4.302-2.433-5.64-7.61-3.106-12.088zm4.088 1.63c-1.383 2.486-.729 5.235 1.58 6.516 2.017 1.112 5.06.263 6.092-1.748 1.29-2.46 1.453-5.676-1.839-7.107-1.872-.82-4.224-.537-5.833 2.34z" fill="#CD4631"/><path d="M47.512 21.11c-2.68 4.552-8.648 6.266-13.076 3.735-4.214-2.406-5.412-8.05-2.452-12.725 3.612-5.76 7.925-5.693 12.962-3.358 3.945 1.834 5.023 8.138 2.566 12.348zm-11.628-7.26c-1.69 2.882-1.378 5.954.702 7.181 2.315 1.362 5.793.348 7.226-2.135 1.32-2.286.513-5.672-1.632-6.832-2.723-1.468-4.75-.892-6.296 1.786z" fill="#81ADC8"/></svg>