<svg width="70" height="32" fill="none" xmlns="http://www.w3.org/2000/svg"><path d="M17.846 3.983c-2.098 1.184-4.09 2.169-6.102 3.518-2.947 1.966-5.775 4.137-8.652 6.216-.747.535-1.457 1.435-2.423.566-.632-.572-.41-1.477.647-2.767a16.634 16.634 0 012.002-2.06C7.43 5.938 11.942 3.184 16.846 1.24c.836-.324 1.727-.585 2.612-.648 1.68-.107 2.632 1.221 2.053 2.96-.372 1.123-1.018 2.165-1.605 3.194-1.12 1.95-2.322 3.829-3.42 5.8-.3.544-.746 1.506-.527 2.048.4.827 2.538-.577 3.497-1.235 2.938-1.984 5.817-4.078 8.736-6.1 2.922-2.035 6.012-3.728 9.374-4.694.98-.282 2.008-.472 3.016-.468 1.626.001 2.56 1.462 2.031 3.17a7.469 7.469 0 01-1.201 2.28c-1.303 1.665-2.707 3.223-4.042 4.848-1.396 1.7-2.831 3.387-3.823 5.96.795-.444 1.301-.68 1.76-1.007 2.968-2.053 5.894-4.164 8.881-6.18 2.718-1.834 5.542-3.467 8.668-4.272 1.18-.3 2.46-.43 3.654-.264 1.652.24 2.425 1.9 1.687 3.546-.548 1.21-1.346 2.3-2.13 3.331-1.499 1.946-3.075 3.808-4.592 5.718-.341.423-1.302 1.373-.715 1.669.84-.57 1.683-1.153 2.532-1.704 2.26-1.506 4.488-3.053 6.786-4.486 2.07-1.301 4.263-2.303 6.732-2.193 2.08.09 3.141 1.834 2.295 3.926a11.116 11.116 0 01-1.666 2.805c-2.956 3.612-5.966 7.162-8.967 10.73-.332.38-.696.78-1.126.993-.397.191-1.027.36-1.31.138-.282-.222-.745-.851-.459-1.737.269-.814.642-1.367 1.125-2.025 2.227-3.041 4.523-6.016 6.796-9.012.617-.805 1.256-1.587 1.886-2.387.21-.23.182-.285.128-.409-.327-.327-1.587.241-2.131.574a552.65 552.65 0 00-9.256 5.762c-1.21.768-2.368 1.66-3.578 2.427-.995.632-2.082.835-3.028-.06-.945-.893-.952-2.19-.488-3.285.671-1.604 1.415-3.218 2.418-4.57 1.513-2.066 3.283-3.917 4.935-5.864.278-.334.536-.705 1.02-1.364-.758.116-1.208.123-1.643.24-2.857.792-5.464 2.228-7.918 3.954-2.945 2.075-5.782 4.336-8.712 6.461-1.159.845-2.352 1.71-3.628 2.29-2.482 1.148-4.307-.39-3.878-3.298.208-1.371.734-2.726 1.341-3.949 1.53-3.108 3.869-5.515 6.124-7.978.477-.521.955-1.043 1.336-1.685-2.773.277-5.241 1.43-7.57 2.87-3.614 2.231-7.117 4.697-10.68 7.005-.916.593-1.903 1.134-2.923 1.466-1.733.552-3.17-.687-3.08-2.663.058-1.446.413-2.959.946-4.28.769-1.946 2.88-5.314 2.884-5.559.052-.216-.157-.046-.157-.046z" fill="#81ADC8"/></svg>