<svg width="208" height="213" fill="none" xmlns="http://www.w3.org/2000/svg"><path d="M132.972 9.384c10.601 2.361 20.248 4.572 30.045 6.732-2.914-5.978-15.022-8.34-13.867-13.113 2.763-5.175 7.938-2.462 10.752-.703 4.974 3.165 9.998 6.732 13.766 11.154 13.164 15.474 20.097 34.315 26.829 53.155 4.371 12.36 7.587 24.92 6.833 38.084-2.562 45.72-23.061 80.688-65.163 99.931-47.88 21.855-105.86-3.417-124.901-52.553-2.01-5.175-4.673-10.099-7.386-14.972C2.645 124.237-1.776 110.923.686 95.9c1.96-12.158 7.586-22.156 16.328-30.597 1.96-1.909 4.02-4.02 5.276-6.43C33.443 37.82 50.777 24.154 73.084 16.618c12.26-4.17 24.568-8.29 37.028-11.857 4.472-1.256 9.496-1.005 14.269-1.005 4.019.2 7.536 1.608 8.591 5.627zm8.391 71.494c-9.848 41.801-37.732 61.597-76.519 69.083 2.412 7.285 5.929 11.304 12.661 13.515 3.769 1.256 7.788 2.11 11.707 2.311 41.047 2.11 70.941-39.993 55.668-78.227-.854-2.06-2.111-4.02-3.517-6.682zm-41.249 119.123c35.923 1.809 62.149-14.67 80.387-44.263 19.996-32.506 19.645-66.37 3.818-100.634-3.818 1.859-7.335 3.617-11.003 5.426 1.206 1.96 2.111 3.467 3.065 5.024 5.979 10.099 9.898 20.9 10.953 32.657 1.859 20.951-4.622 39.44-17.434 55.819-14.62 18.69-34.416 30.648-55.065 41.399-2.964 1.558-6.381 2.161-9.646 3.216a83.81 83.81 0 00-5.075 1.356zm34.818-164.692c10.098 2.864 19.644 7.184 27.834 14.168.954.804 2.663 1.357 3.818 1.055 4.823-1.055 15.073-3.567 12.962-6.481-4.17-12.31-27.783-24.066-44.564-22.408-.05 4.27-.05 8.591-.05 13.666zM124.381 81.38c-14.62-5.628-49.99 18.941-53.156 36.425 15.073-2.362 42.605-19.494 50.845-31.803.954-1.407 1.557-3.065 2.311-4.623zm1.608-12.661c-6.532-4.07-14.319-6.431-21.604-4.371-8.491 2.411-17.082 6.23-24.267 11.304-11.304 7.938-19.243 19.142-23.312 32.557-.905 3.014-1.809 6.531 1.356 9.998 1.508-2.764 2.713-5.225 4.07-7.587 14.318-24.366 34.215-40.142 63.757-41.9zm-15.324-47.68c-23.362-1.005-40.947 9.697-56.974 25.975 6.23-.754 11.555-1.356 16.881-2.06 2.361-.301 4.974-.15 6.933-1.206 9.396-5.024 19.344-8.44 29.543-10.048 1.256-4.371 2.411-8.34 3.617-12.66zm52.352 119.525c18.238-23.061 15.575-55.165-1.759-76.066-.703-.854-1.859-1.859-2.863-1.96-4.723-.451-9.446-.602-14.118-.853.653 1.356 1.306 1.808 1.959 2.26 25.322 16.279 32.255 38.938 20.398 66.571-1.406 3.316-2.411 6.732-3.617 10.048zm-108.824-9.847c-7.737-3.567-11.304-9.496-11.053-17.384.1-3.366.904-6.732 1.859-9.948 2.713-9.395 8.14-17.283 14.118-24.87.754-.954 1.055-2.21 1.557-3.315-12.007 5.778-26.578 36.073-21.704 57.326a2133 2133 0 0013.666 5.376c.603-1.407.954-1.91 1.005-2.462.25-1.457.351-2.814.552-4.723zm9.395 6.883c20.198-3.014 36.627-11.355 49.84-25.874-7.687 3.969-14.972 8.892-22.81 12.459-8.088 3.668-16.78 6.03-26.075 9.295-.05.251-.402 1.708-.955 4.12zm18.238 40.746c16.831 2.663 33.059.352 48.232-7.285 4.221-2.11 7.687-5.778 11.506-8.742-.302-.603-.653-1.156-.955-1.758-17.735 12.158-37.782 16.278-58.783 17.785zm-20.95-12.51c-2.613-5.426-5.125-10.601-7.788-16.178-3.316-.703-7.084-1.507-11.154-2.361 3.216 11.455 6.33 14.52 18.941 18.539zm-25.523-93.6c8.691-5.226 17.484-10.551 26.778-16.178-13.615-1.256-22.407 4.27-26.778 16.178zM10.03 115.093c.703-9.295 1.356-17.736 2.11-27.332-3.819 9.295-4.823 17.685-2.11 27.332zm115.807-89.38c-6.632.452-6.833.703-7.637 7.234 1.859.201 3.718.402 6.331.704.452-2.764.854-5.024 1.306-7.938z" fill="#000"/></svg>