<svg width="64" height="62" fill="none" xmlns="http://www.w3.org/2000/svg"><path d="M33.73 30.146c-.25-1-.397-1.813-.667-2.605-2.709-8-7.063-15.125-12.021-21.895-.584-.792-1.313-1.542-2.125-2.042-.438-.27-1.313-.23-1.813.042-.375.208-.646 1.02-.562 1.479a8.17 8.17 0 00.895 2.562c2.875 5.23 5.771 10.438 8.709 15.625 1.104 1.938 2.27 3.854 3.416 5.771.375.646.792 1.27 1.23 1.854.479.667 1.208 1.063 1.937.625.48-.291 1-.5 1-1.416zM4.23 61.167c1-.166 2.166-.291 3.29-.541 4.438-1 8.876-2 13.293-3.042.958-.23 1.895-.625 2.75-1.084 1.145-.604 1.541-1.458 1.354-2.395-.188-.938-.938-1.521-2.25-1.542-.896-.02-1.855 0-2.709.208a1525.928 1525.928 0 00-16.791 4.355c-.625.166-1.271.458-1.75.875-1.209 1.02-.834 2.625.708 3.02.604.146 1.292.084 2.104.146zM62.77 5.312c-.083-.979-.29-1.958-.54-2.916C62 1.542 61.416.937 60.48.854c-.793-.062-1.647.73-1.772 1.77-.166 1.397-.312 2.813-.25 4.21.188 4.207.459 8.437.75 12.645a47.83 47.83 0 00.521 4.188c.083.479.25.979.52 1.354.73 1.062 2.063.979 2.584-.167.292-.646.417-1.438.417-2.146.104-2.333-.208-13.937-.48-17.396z" fill="#CD4631"/></svg>