<svg width="125" height="132" fill="none" xmlns="http://www.w3.org/2000/svg"><path d="M103.802 91.592c-4.853-2.734-13.25-6.52-15.899-9.594-1.092-1.275-.657-2.24-.234-2.882.41-.594 1.931-.916 2.74-.65 1.837.568 3.584 1.464 5.236 2.436 3.679 2.143 7.321 4.326 10.872 6.662 1.884 1.234 2.12 2.984.652 3.672-.862.398-1.676.81-3.367.356zm-91.89 14.255c.568-1.181 1.214-1.713 2.153-2.493 3.647-2.998 7.392-5.895 11.09-8.804.221-.168.472-.352.727-.46 1.153-.546 2.461-1.202 3.45-.007.981 1.22.206 2.421-.734 3.302a806.217 806.217 0 01-11.859 11.014c-.605.568-1.49.959-2.312 1.117-2.04.384-3.316-1.241-2.515-3.669zm58.89 14.9c-.283 1.057-1.306 1.588-1.948 1.542-.866-.056-1.532-.386-2.492-1.499-.33-.365-.395-1.062-.498-1.618-.72-4.168-1.47-8.32-2.136-12.499-.177-1.029-.317-2.199.012-3.143.303-.849 1.176-1.949 1.962-2.065.763-.123 1.704.028 2.5 1.374.3.483.505 1.217.606 1.873.64 4.374 1.28 8.748 1.866 13.132.104.833.072 1.705.128 2.903zM4.954 68.428c-.998-.595-1.564-1.3-1.54-2.048.028-.949.795-2.027 1.538-2.734.569-.527 1.591-.68 2.435-.731 4.22-.253 8.457-.477 12.698-.624.714-.035 1.578.121 2.156.502.938.63 1.164 1.57.055 2.33-.62.438-1.318.88-2.034 1.015-4.153.85-8.31 1.623-12.485 2.367-.763.123-1.855.535-2.823-.077zM95.29 49.453c-.46-.35-.68-1.314-.552-1.884.184-.781.67-1.657 1.31-2.165 2.989-2.42 6.082-4.762 9.146-7.086.448-.358.988-.591 1.529-.824 1.217-.504 2.714-.833 3.292.58.334.82.033 2.601-.618 3.056-3.986 2.857-8.163 5.487-12.317 8.123-.34.236-.989.591-1.79.2zM21.387 24.19c1.207.752 2.154 1.258 3.022 1.868a525.48 525.48 0 017.528 5.338c.693.513 1.433 1.038 1.934 1.701.352.472.606 1.496.354 1.78-.427.465-1.032 1.033-1.975.704-.393-.13-.903-.292-1.318-.529-2.92-1.688-5.852-3.329-8.723-5.105-.974-.588-1.958-1.33-2.62-2.237-.48-.657-.747-1.911-.406-2.524.304-.573 1.053-1.303 2.204-.995zm45.568 1.793c-.1.276-.198.55-.361.784-.708 1.044-1.312 2.265-2.9 1.714-1.683-.577-1.376-2.004-1.044-3.148.813-2.752 1.813-5.453 2.773-8.19.364-.984.759-1.986 1.298-2.873.546-.91 1.216-1.813 2.533-1.284 1.224.504 1.42 1.463 1.142 2.596-.327 1.22-2.59 8.163-3.441 10.401z" fill="#CD4631"/></svg>