<svg width="147" height="153" fill="none" xmlns="http://www.w3.org/2000/svg"><path d="M51.989 4.877c1.355-5.583 9.467-5.032 10.055.682l3.596 34.916c.398 3.87 4.801 5.895 7.999 3.679l36.233-25.114c4.541-3.147 10.154 2.145 7.28 6.863L99.597 54.715c-1.801 2.957-.205 6.812 3.16 7.63l39.923 9.692c4.908 1.192 5.3 8.022.56 9.767l-41.232 15.187c-3.17 1.168-4.357 5.034-2.388 7.779l15.433 21.511c3.248 4.526-2.057 10.246-6.815 7.347l-27.953-17.031c-2.957-1.801-6.812-.205-7.63 3.16l-6.935 28.568c-1.346 5.541-9.381 5.054-10.048-.609l-4.953-42.109c-.473-4.016-5.2-5.92-8.325-3.353L15.36 124.467c-4.555 3.743-10.781-1.921-7.486-6.809l25.21-37.395c2.358-3.5-.298-8.189-4.512-7.965l-22.92 1.22c-6.103.325-7.53-8.395-1.64-10.033l19.532-5.43c3.595-1 4.943-5.39 2.529-8.235L8.79 29.451c-3.756-4.427 1.602-10.695 6.56-7.675l22.365 13.627c2.957 1.801 6.812.205 7.63-3.16l6.644-27.366z" fill="#000"/></svg>