<svg width="156" height="217" fill="none" xmlns="http://www.w3.org/2000/svg"><path d="M71.714 134.88c-.707 2.607-1.405 5.186-2.11 7.718-.322-3.8-.713-7.749-1.354-11.724l-.019-.115-.022-.113c-2.34-11.983-9-22.161-20.823-29.572a688.05 688.05 0 01-2.408-1.53c-9.452-6.022-20.091-12.8-33.917-15.162 17.369-3.046 30.764-9.437 41.161-18.454 11.081-9.61 18.311-21.817 23.49-34.992l.007-.018.007-.018c1.178-3.045 2.107-6.295 2.905-9.477-.104 1.652-.207 3.315-.31 5l-.002.018v.018a364.912 364.912 0 01-.448 6.517c-.356 4.787-.737 9.897-.742 14.79-.488 16.452 13.226 25.12 25.293 29.8l.059.022.058.022a70.06 70.06 0 005.963 1.897c-1.175.305-2.336.622-3.484.946l-.088.025-.086.027c-4.753 1.474-10.105 4.516-13.267 8.772l-.233.279c-4.043 4.841-9.08 10.873-11.474 17.897-3.165 9.007-5.707 18.39-8.156 27.427zM82.56 6.699a.157.157 0 010 0zm-2.976-1.003v0z" stroke="#81ADC8" stroke-width="14"/><path d="M125.255 175.886c-.853 2.427-1.595 4.947-2.285 7.429-1.215-4.246-3.875-7.866-8.163-10.554-.306-.193-.617-.392-.933-.593-2.422-1.545-5.158-3.29-8.39-4.553 4.506-1.388 8.24-3.472 11.332-6.155 3.158-2.738 5.519-5.989 7.349-9.494a46.82 46.82 0 00-.03 1.535c-.187 6.618 4.9 10.216 9.345 12.16-1.329.697-2.618 1.664-3.541 2.893l-.109.131c-1.513 1.81-3.578 4.281-4.575 7.201zm-25.564-10.178l.007.011a.071.071 0 01-.007-.011z" stroke="#CD4631" stroke-width="8"/><path d="M31.211 194.522c1.486-1.288 2.69-2.752 3.685-4.32.333 3.348 2.8 5.369 5.155 6.574a6.508 6.508 0 00-1.489 1.403 9.243 9.243 0 01-.072.087c-.925 1.106-2.259 2.7-2.908 4.6-.35.999-.673 2.027-.975 3.056-.931-2.079-2.482-3.869-4.702-5.261l-.581-.37c-1.173-.748-2.491-1.59-4-2.306 2.276-.856 4.225-2.021 5.887-3.463z" stroke="#000" stroke-width="6"/></svg>