<svg width="199" height="175" fill="none" xmlns="http://www.w3.org/2000/svg"><path d="M85.52 61.608c-2.536-4.003-4.38-6.942-6.24-9.844-7.465-11.747-15.015-23.487-22.366-35.311-1.766-2.824-3.217-6.018-3.961-9.216-.396-1.899.36-4.699 1.67-5.992.766-.767 4.18.03 5.5 1.184 3.245 2.758 6.197 5.936 8.834 9.276 8.19 10.466 16.185 21.102 24.573 32.103 3.642-6.149 7.128-12.32 10.941-18.274 2.939-4.611 6.235-9.078 9.595-13.394 2.17-2.81 5.168-4.788 8.773-2.713 3.747 2.133 3.768 5.784 2.275 9.28-4.38 10.447-8.96 20.771-13.411 31.19-1.076 2.463-2.01 4.984-3.016 7.477.249.514 4.811-1.123 7-2.02 18.708-7.69 37.387-15.308 56.181-22.797 2.624-1.053 5.633-1.62 8.463-1.637 1.501-.016 3.77 1.355 4.254 2.627.483 1.27-.315 3.764-1.425 4.766-2.104 1.924-4.694 3.405-7.305 4.63-17.244 8.279-34.531 16.458-51.797 24.688-1.895.891-3.819 1.854-6.659 3.234 9.255 2.988 17.645 5.544 25.921 8.386 16.645 5.761 33.268 11.68 49.869 17.548 1.014.368 2.085.8 2.87 1.323 5.131 3.436 2.376 8.825-2.123 7.838-5.5-1.183-11.122-2.168-16.549-3.736-19.417-5.68-38.748-11.572-58.122-17.358-.408-.123-.822-.125-2.129-.28a3120.61 3120.61 0 0010.04 17.299c6.145 10.593 12.441 21.122 18.386 31.801 1.581 2.873 2.631 6.236 3.068 9.476.486 3.425-2.154 5.134-4.923 3.148-3.36-2.474-6.598-5.56-8.899-9.013-11.242-16.789-22.14-33.813-33.153-50.758a520.56 520.56 0 01-4.217-6.627c-3.796 7.867-7.154 14.958-10.655 21.991-10.432 20.922-20.864 41.845-31.367 62.738a36.795 36.795 0 01-4.25 6.524c-2.228 2.745-5.203 3.946-8.565 2.3-3.148-1.559-4.164-4.495-3.5-7.787.642-3.136 1.563-6.242 2.791-9.183 7.999-19.213 16.09-38.347 24.16-57.53.61-1.41 1.135-2.813 2.126-5.27-2.274.904-3.833 1.476-5.385 2.133-17.321 7.338-34.657 14.712-52.014 22.035-1.952.827-4.083 1.582-6.184 1.646-1.429.044-3.556-.855-4.183-1.978-.627-1.122.007-3.309.51-4.555 1.615-3.903 4.425-4.798 7.186-6.292 16.252-8.804 32.64-17.43 49.07-25.954 5.93-3.073 12.088-5.682 19.476-9.077-10.12-2.799-18.94-5.115-27.645-7.715-8.37-2.507-16.624-5.298-24.957-7.997-.886-.274-1.72-.777-2.463-1.2-3.904-2.155.168-5.563 1.461-5.373 8.908 1.275 17.859 2.65 26.672 4.466 10.421 2.258 33.283 7.63 35.798 7.774z" fill="#000"/></svg>