<svg width="630" height="593" fill="none" xmlns="http://www.w3.org/2000/svg"><path d="M198.612 83.95c0 46.507 17.985 124.926-49.929 209.698-66.336 82.802 24.924-179.394 116.578-195.622 107.137-18.97-77.503 420.275-87.023 330.883-5.327-50.011 149.646-312.51 193.237-268.918 55.454 55.454-89.956 372.2-123.91 366.99-59.899-9.19 154.332-373.535 215.119-342.155 72.484 37.418-46.99 287.123-102.429 300.517-44.351 10.714 121.065-231.278 231.757-175.894" stroke="#000" stroke-width="8" stroke-linecap="round"/><path d="M599.507 289.989c1.081-1.935 4.039-.937 3.726 1.257l-.576 4.042a2 2 0 002.255 2.264l15.714-2.18c2.12-.294 3.158 2.499 1.361 3.661l-11.678 7.55c-1.354.876-1.168 2.913.323 3.528l7.95 3.282c1.827.755 1.569 3.42-.37 3.81l-5.202 1.045a2 2 0 00-1.507 2.585l1.477 4.494c.564 1.717-1.259 3.242-2.849 2.384l-6.344-3.42c-1.628-.878-3.473.735-2.821 2.465l3.489 9.266c.757 2.01-1.755 3.638-3.28 2.125l-9.863-9.783a2 2 0 00-2.394-.321l-11.119 6.291c-1.853 1.048-3.843-1.139-2.625-2.885l6.549-9.387a2 2 0 00-.378-2.695l-11.417-9.294c-1.46-1.188-.62-3.551 1.262-3.551h8.796a2 2 0 001.98-1.715l1.379-9.562c.298-2.069 3.169-2.351 3.865-.381l2.234 6.324c.574 1.623 2.793 1.812 3.632.309l6.431-11.508z" fill="#CD4631"/></svg>