<svg width="81" height="39" fill="none" xmlns="http://www.w3.org/2000/svg"><path d="M68.764 13.27c-2.078 1.185-3.812 2.232-5.597 3.176-3.022 1.614-6.078 3.073-9.598 3.314-3.57.24-6.37-1.116-8.052-4.19-1.03-1.888-1.545-4.051-2.215-6.111-.257-.807-.291-1.7-.498-2.954-1.03 1.58-1.82 2.833-2.66 4.052-2.044 2.988-3.967 6.061-6.199 8.894-3.038 3.897-6.867 4.223-10.679 1.03-1.493-1.253-2.695-2.884-4.017-4.36-.395-.447-.721-.945-1.15-1.512-.773 3.348-1.46 6.542-2.267 9.684-1.888 7.33-7.76 7.073-11.932 3.863-1.116-.859-2.043-2.01-2.953-3.108-.584-.755-.704-1.734.137-2.37.755-.583 1.545-.171 2.198.447.652.6 1.27 1.253 1.974 1.768.824.601 1.665 1.202 2.593 1.631 2.61 1.202 4.36.584 5.425-2.094.755-1.889 1.236-3.898 1.734-5.872.464-1.837.841-3.708 1.219-5.58.206-.961.446-1.923 1.494-2.249 1.201-.378 1.923.464 2.592 1.236.859.979 1.563 2.078 2.473 3.005 1.133 1.184 2.3 2.352 3.588 3.33 1.751 1.322 3.022 1.254 4.567-.309 1.476-1.493 2.901-3.107 4.12-4.824 2.593-3.691 5.048-7.451 7.503-11.228.584-.893 1.22-1.511 2.3-1.305 1.03.189 1.357 1.03 1.495 1.974.24 1.683.411 3.4.738 5.065.292 1.46.618 2.953 1.167 4.326 1.46 3.675 3.726 4.842 7.606 4.173 2.919-.498 5.649-1.546 8.241-2.936 1.872-.996 3.674-2.112 5.494-3.177.962-.566 1.957-1.15 3.022-.309.996.807.824 1.94.6 3.04-.102.463-.274.91-.428 1.356-.327.892-.601 1.82-1.013 2.678-3.022 6.404-.91 11.675 3.64 16.345.84.858 1.957 1.46 2.97 2.146.498.343 1.116.55 1.562.944.326.275.687.824.601 1.15-.086.361-.635.705-.996.876-.79.36-1.854.258-2.61-.051-1.493-.618-3.004-1.357-4.24-2.37-2.747-2.232-4.653-5.15-6.044-8.412-1.184-2.782-1.03-5.615-.12-8.413.618-1.82 1.374-3.571 2.215-5.769z" fill="#81ADC8"/></svg>