<svg width="32" height="32" fill="none" xmlns="http://www.w3.org/2000/svg"><circle cx="16" cy="16" r="15.75" fill="url(#paint0_linear_552_74)"/><path d="M18.753 7.736a1.244 1.244 0 00-.455-1.695 1.232 1.232 0 00-1.687.456l-.594 1.037-.594-1.037a1.232 1.232 0 00-1.687-.456 1.245 1.245 0 00-.454 1.695l1.31 2.286-4.144 7.232H7.111c-.683 0-1.236.556-1.236 1.242 0 .685.553 1.241 1.236 1.241h11.625c.102-.27.21-.73.096-1.155-.172-.638-.807-1.328-1.871-1.328H13.3l5.453-9.518zM11.091 21.11c-.21-.236-.683-.611-1.097-.735-.632-.189-1.11-.07-1.352.033l-.92 1.606a1.244 1.244 0 00.454 1.695 1.232 1.232 0 001.687-.456l1.228-2.143z" fill="#fff"/><path d="M23.008 19.737h1.881c.683 0 1.236-.556 1.236-1.241 0-.686-.553-1.242-1.236-1.242h-3.303l-3.721-6.495c-.277.264-.807.938-.887 1.702-.103.983.052 1.81.515 2.62 1.558 2.725 3.118 5.448 4.678 8.172.34.594 1.096.798 1.687.456.592-.342.795-1.1.455-1.695l-1.305-2.277z" fill="#fff"/><defs><linearGradient id="paint0_linear_552_74" x1="16" y1=".25" x2="16" y2="31.75" gradientUnits="userSpaceOnUse"><stop stop-color="#2AC9FA"/><stop offset="1" stop-color="#1F65EB"/></linearGradient></defs></svg>