<svg width="122" height="22" fill="none" xmlns="http://www.w3.org/2000/svg"><path d="M9.912 7v8.001h2.832V7H9.912z" fill="#FAB908"/><path d="M1.416 11.625c.782 0 1.416-.616 1.416-1.375 0-.76-.634-1.375-1.416-1.375C.634 8.875 0 9.491 0 10.25c0 .76.634 1.375 1.416 1.375z" fill="#0066D9"/><path d="M1.416 13.125c.782 0 1.416-.616 1.416-1.375 0-.76-.634-1.375-1.416-1.375-.782 0-1.416.616-1.416 1.375 0 .76.634 1.375 1.416 1.375z" fill="#0066D9"/><path d="M2.832 10.25H0v1.5h2.832v-1.5z" fill="#0066D9"/><path d="M21.24 13.125c.783 0 1.416-.616 1.416-1.375 0-.76-.633-1.375-1.416-1.375-.782 0-1.416.616-1.416 1.375 0 .76.634 1.375 1.416 1.375z" fill="#4285F4"/><path d="M21.24 11.625c.783 0 1.416-.616 1.416-1.375 0-.76-.633-1.375-1.416-1.375-.782 0-1.416.616-1.416 1.375 0 .76.634 1.375 1.416 1.375z" fill="#4285F4"/><path d="M19.824 11.75h2.832v-1.5h-2.832v1.5z" fill="#4285F4"/><path d="M6.308 16.125c.782 0 1.416-.615 1.416-1.374 0-.76-.634-1.375-1.416-1.375-.782 0-1.416.615-1.416 1.375 0 .759.634 1.374 1.416 1.374z" fill="#EA4335"/><path d="M6.308 17.625c.782 0 1.416-.616 1.416-1.375 0-.76-.634-1.375-1.416-1.375-.782 0-1.416.616-1.416 1.375 0 .76.634 1.375 1.416 1.375z" fill="#EA4335"/><path d="M7.724 14.75H4.892v1.5h2.832v-1.5zM6.308 7.125c.782 0 1.416-.616 1.416-1.375 0-.76-.634-1.375-1.416-1.375-.782 0-1.416.616-1.416 1.375 0 .76.634 1.375 1.416 1.375zm0 4.875c.782 0 1.416-.616 1.416-1.376 0-.759-.634-1.374-1.416-1.374-.782 0-1.416.615-1.416 1.374 0 .76.634 1.375 1.416 1.375z" fill="#EA4335"/><path d="M7.724 5.75H4.892v4.906h2.832V5.75z" fill="#EA4335"/><path d="M16.349 8.626c.782 0 1.416-.616 1.416-1.375 0-.76-.634-1.376-1.416-1.376-.782 0-1.416.616-1.416 1.375 0 .76.634 1.376 1.416 1.376z" fill="#34A853"/><path d="M16.349 7.125c.782 0 1.416-.616 1.416-1.375 0-.76-.634-1.375-1.416-1.375-.782 0-1.416.616-1.416 1.375 0 .76.634 1.375 1.416 1.375z" fill="#34A853"/><path d="M14.933 7.25h2.832v-1.5h-2.832v1.5z" fill="#34A853"/><path d="M11.328 4.25c.782 0 1.416-.615 1.416-1.375 0-.759-.634-1.375-1.416-1.375-.782 0-1.416.616-1.416 1.375 0 .76.634 1.375 1.416 1.375z" fill="#FAB908"/><path d="M11.328 2.75c.782 0 1.416-.616 1.416-1.375C12.744.615 12.11 0 11.328 0c-.782 0-1.416.616-1.416 1.375 0 .76.634 1.375 1.416 1.375z" fill="#FAB908"/><path d="M9.912 2.875h2.832v-1.5H9.913v1.5zM11.328 22c.782 0 1.416-.616 1.416-1.375 0-.76-.634-1.375-1.416-1.375-.782 0-1.416.616-1.416 1.375 0 .76.634 1.375 1.416 1.375z" fill="#FAB908"/><path d="M11.328 20.5c.782 0 1.416-.615 1.416-1.375 0-.759-.634-1.375-1.416-1.375-.782 0-1.416.616-1.416 1.375 0 .76.634 1.375 1.416 1.375z" fill="#FAB908"/><path d="M9.912 20.625h2.832v-1.5H9.913v1.5z" fill="#FAB908"/><path d="M16.349 17.625c.782 0 1.416-.616 1.416-1.375 0-.76-.634-1.375-1.416-1.375-.782 0-1.416.616-1.416 1.375 0 .76.634 1.375 1.416 1.375zm0-4.875c.782 0 1.416-.615 1.416-1.374 0-.76-.634-1.375-1.416-1.375-.782 0-1.416.615-1.416 1.375 0 .759.634 1.375 1.416 1.375z" fill="#34A853"/><path d="M14.933 16.25h2.832v-4.874h-2.832v4.875z" fill="#34A853"/><path d="M11.328 8.376c.782 0 1.416-.616 1.416-1.375 0-.76-.634-1.376-1.416-1.376-.782 0-1.416.616-1.416 1.376 0 .759.634 1.375 1.416 1.375zm0 7.999c.782 0 1.416-.615 1.416-1.374 0-.76-.634-1.375-1.416-1.375-.782 0-1.416.615-1.416 1.375 0 .759.634 1.374 1.416 1.374z" fill="#FAB908"/><path fill-rule="evenodd" clip-rule="evenodd" d="M74.8 14.45h-1.179V5.54h3.128c.777 0 1.45.251 2.018.753.568.502.852 1.135.852 1.898 0 .763-.284 1.396-.852 1.898a2.948 2.948 0 01-2.018.753H74.8v3.609zm0-4.703h1.974c.496 0 .893-.162 1.192-.486.299-.323.449-.68.449-1.07s-.15-.746-.45-1.07c-.298-.324-.695-.485-1.191-.485H74.8v3.11zm5.797-.66c.606-.622 1.38-.933 2.32-.933s1.712.309 2.319.927c.606.618.91 1.392.91 2.32 0 .93-.304 1.704-.91 2.322-.607.618-1.38.927-2.32.927s-1.713-.31-2.32-.927c-.606-.618-.909-1.392-.909-2.321 0-.93.303-1.7.91-2.315zm.871 3.92c.41.399.893.598 1.448.598A1.98 1.98 0 0084.358 13c.406-.402.609-.935.609-1.6 0-.663-.203-1.196-.609-1.598a1.98 1.98 0 00-1.442-.604 1.98 1.98 0 00-1.442.604c-.405.402-.608.935-.608 1.599 0 .664.2 1.199.602 1.605zM89.7 14.65c-.811 0-1.512-.311-2.101-.933-.59-.623-.885-1.394-.885-2.315s.295-1.693.885-2.315c.59-.622 1.29-.933 2.101-.933.479 0 .908.1 1.288.299.38.199.665.448.852.746h.052l-.052-.846V5.541h1.18v8.91h-1.128v-.846h-.052c-.187.298-.471.547-.852.746-.38.2-.81.299-1.288.299zm.193-1.045c.555 0 1.027-.2 1.416-.598.388-.398.583-.933.583-1.605 0-.672-.195-1.207-.583-1.605a1.905 1.905 0 00-1.416-.598 1.9 1.9 0 00-1.41.604c-.393.402-.59.935-.59 1.599 0 .664.197 1.197.59 1.599.393.402.863.604 1.41.604zm7.219 1.045c-.94 0-1.714-.31-2.32-.927-.607-.618-.91-1.392-.91-2.321 0-.93.303-1.703.91-2.321.606-.618 1.38-.927 2.32-.927.7 0 1.281.166 1.742.498.462.332.8.75 1.013 1.257l-1.076.435c-.325-.763-.91-1.145-1.756-1.145-.521 0-.98.208-1.378.622-.397.415-.596.942-.596 1.58 0 .64.199 1.167.596 1.581.397.415.857.623 1.378.623.88 0 1.486-.382 1.82-1.145l1.05.435a2.935 2.935 0 01-1.031 1.25c-.475.337-1.062.505-1.763.505zm5.591 0c-.666 0-1.224-.187-1.673-.56-.448-.373-.672-.867-.672-1.481 0-.664.264-1.184.794-1.562.53-.377 1.184-.566 1.961-.566.692 0 1.26.124 1.704.373v-.174c0-.448-.158-.807-.474-1.076-.316-.27-.705-.405-1.166-.405-.342 0-.651.079-.929.237a1.225 1.225 0 00-.57.647l-1.077-.448c.145-.365.432-.703.859-1.014.427-.312.991-.467 1.691-.467.804 0 1.47.228 2 .684.53.457.794 1.1.794 1.93v3.683h-1.128v-.846h-.051c-.47.697-1.157 1.045-2.063 1.045zm.192-1.045c.487 0 .929-.177 1.326-.53.398-.352.596-.769.596-1.25-.333-.265-.833-.398-1.499-.398-.573 0-1.004.12-1.294.36-.291.241-.436.523-.436.847 0 .298.132.535.397.71.265.174.568.26.91.26zm6.501 1.045c-.7 0-1.279-.166-1.736-.498a2.95 2.95 0 01-1.006-1.244l1.05-.423c.334.763.902 1.144 1.705 1.144.367 0 .669-.078.903-.236.236-.158.353-.365.353-.622 0-.399-.286-.668-.859-.81l-1.269-.298a3.056 3.056 0 01-1.14-.566c-.359-.278-.538-.653-.538-1.126 0-.54.245-.977.736-1.313.492-.336 1.075-.504 1.75-.504.555 0 1.051.122 1.487.367.435.245.747.595.935 1.052l-1.025.41c-.231-.54-.709-.809-1.435-.809-.351 0-.646.07-.885.212-.239.14-.359.332-.359.572 0 .349.278.585.833.71l1.244.286c.589.133 1.025.36 1.307.684.282.324.422.689.422 1.095 0 .548-.23 1.004-.691 1.37-.462.364-1.056.547-1.782.547zm6.002-.1c-.658 0-1.16-.17-1.506-.51-.347-.34-.519-.821-.519-1.443V9.398h-1.102V8.353h1.102V6.486h1.179v1.867h1.538v1.045h-1.538v3.111c0 .664.282.996.846.996.213 0 .393-.033.538-.1l.41.984c-.256.107-.573.161-.948.161zm4.13.1c-.701 0-1.28-.166-1.736-.498a2.96 2.96 0 01-1.007-1.244l1.051-.423c.333.763.901 1.144 1.705 1.144.367 0 .668-.078.903-.236.235-.158.352-.365.352-.622 0-.399-.286-.668-.858-.81l-1.269-.298a3.056 3.056 0 01-1.14-.566c-.359-.278-.539-.653-.539-1.126 0-.54.246-.977.737-1.313.492-.336 1.075-.504 1.75-.504a2.98 2.98 0 011.486.367c.436.245.748.595.936 1.052l-1.025.41c-.231-.54-.71-.809-1.436-.809-.35 0-.645.07-.884.212-.239.14-.359.332-.359.572 0 .349.277.585.833.71l1.243.286c.59.133 1.025.36 1.308.684.281.324.422.689.422 1.095 0 .548-.231 1.004-.692 1.37-.461.364-1.055.547-1.781.547z" fill="#14142B"/><path d="M28.845 9.542c0-2.82 2.433-5.104 5.337-5.104 1.602 0 2.743.612 3.604 1.41l-1.021.982a3.68 3.68 0 00-2.583-1.002c-2.113 0-3.765 1.653-3.765 3.704 0 2.052 1.652 3.705 3.765 3.705 1.371 0 2.152-.535 2.653-1.021.41-.399.68-.972.781-1.75h-3.434v-1.39h4.836c.05.252.08.544.08.874 0 1.05-.29 2.344-1.242 3.258-.93.933-2.112 1.429-3.674 1.429-2.904 0-5.337-2.285-5.337-5.095zm14.108-1.41c1.872 0 3.394 1.381 3.394 3.287 0 1.895-1.522 3.286-3.394 3.286-1.873 0-3.395-1.39-3.395-3.286 0-1.906 1.522-3.287 3.395-3.287zm0 5.27c1.02 0 1.912-.817 1.912-1.993 0-1.186-.891-1.993-1.912-1.993-1.032 0-1.913.807-1.913 1.993 0 1.176.891 1.993 1.913 1.993zm7.409-5.27c1.872 0 3.394 1.381 3.394 3.287 0 1.895-1.522 3.286-3.394 3.286-1.873 0-3.395-1.39-3.395-3.286 0-1.906 1.522-3.287 3.395-3.287zm0 5.27c1.02 0 1.912-.817 1.912-1.993 0-1.186-.881-1.993-1.912-1.993-1.032 0-1.913.807-1.913 1.993 0 1.176.891 1.993 1.913 1.993zm9.09-5.163h1.423v5.902c0 2.43-1.472 3.422-3.214 3.422a3.223 3.223 0 01-3.004-1.944l1.292-.525c.23.534.79 1.166 1.702 1.166 1.111 0 1.802-.67 1.802-1.925v-.476h-.05c-.33.399-.971.748-1.782.748-1.693 0-3.244-1.438-3.244-3.276 0-1.857 1.551-3.296 3.243-3.296.812 0 1.452.35 1.783.74h.05v-.536zm-1.701 5.075c1.011 0 1.812-.826 1.802-1.983 0-1.157-.791-2.003-1.802-2.003-1.021 0-1.883.846-1.883 2.003 0 1.147.861 1.983 1.883 1.983zm4.135 1.167V4.827h1.481v9.654h-1.481zm5.557-1.08c.76 0 1.28-.359 1.671-.903l1.152.748c-.38.535-1.272 1.459-2.823 1.459-1.923 0-3.355-1.449-3.355-3.286 0-1.955 1.452-3.287 3.195-3.287 1.752 0 2.612 1.352 2.893 2.09l.15.37L65.8 12.41c.351.652.882.992 1.643.992zm-.11-4.005c-.762 0-1.813.652-1.773 1.916l3.024-1.216c-.16-.418-.66-.7-1.251-.7z" fill="#14142B"/></svg>