<svg width="28" height="30" fill="none" xmlns="http://www.w3.org/2000/svg"><mask id="a" style="mask-type:alpha" maskUnits="userSpaceOnUse" x="0" y="0" width="28" height="30"><path d="M26.804 13.2a2.048 2.048 0 010 3.6L3.976 29.361c-1.39.765-3.101-.228-3.101-1.8V2.438c0-1.572 1.71-2.565 3.1-1.8L26.806 13.2z" fill="#C4C4C4"/></mask><g mask="url(#a)"><path d="M1.59 29.115l14.239-14.32L1.824.71a2.033 2.033 0 00-.949 1.727v25.124c0 .64.284 1.184.714 1.553z" fill="url(#paint0_linear_552_75)"/><path d="M26.804 13.2a2.048 2.048 0 010 3.6l-5.759 3.168-5.216-5.173 4.95-4.91 6.025 3.315z" fill="url(#paint1_linear_552_75)"/><path d="M21.045 19.969l-5.216-5.174-14.24 14.32c.626.536 1.563.7 2.387.247l17.07-9.393z" fill="url(#paint2_linear_552_75)"/><path d="M1.824.711l14.005 14.084 4.95-4.91L3.976.638c-.727-.4-1.54-.32-2.152.073z" fill="url(#paint3_linear_552_75)"/></g><defs><linearGradient id="paint0_linear_552_75" x1="10.636" y1="9.233" x2=".955" y2="18.994" gradientUnits="userSpaceOnUse"><stop stop-color="#00C3FF"/><stop offset="1" stop-color="#1BE2FA"/></linearGradient><linearGradient id="paint1_linear_552_75" x1="15.829" y1="14.795" x2="28.706" y2="14.795" gradientUnits="userSpaceOnUse"><stop stop-color="#FFCE00"/><stop offset="1" stop-color="#FFEA00"/></linearGradient><linearGradient id="paint2_linear_552_75" x1="1.29" y1="30.863" x2="18.419" y2="17.13" gradientUnits="userSpaceOnUse"><stop stop-color="#DE2453"/><stop offset="1" stop-color="#FE3944"/></linearGradient><linearGradient id="paint3_linear_552_75" x1="2.121" y1="-.861" x2="18.422" y2="12.454" gradientUnits="userSpaceOnUse"><stop stop-color="#11D574"/><stop offset="1" stop-color="#01F176"/></linearGradient></defs></svg>