<svg width="18" height="18" fill="none" xmlns="http://www.w3.org/2000/svg"><rect x=".25" y=".25" width="17.5" height="17.5" rx="8.75" fill="url(#paint0_radial_687_86)"/><rect x=".25" y=".25" width="17.5" height="17.5" rx="8.75" fill="url(#paint1_radial_687_86)"/><rect x=".25" y=".25" width="17.5" height="17.5" rx="8.75" fill="url(#paint2_radial_687_86)"/><path d="M12.5 6.25a.75.75 0 11-1.5 0 .75.75 0 011.5 0z" fill="#fff"/><path fill-rule="evenodd" clip-rule="evenodd" d="M9 11.5a2.5 2.5 0 100-5 2.5 2.5 0 000 5zm0-1a1.5 1.5 0 100-3 1.5 1.5 0 000 3z" fill="#fff"/><path fill-rule="evenodd" clip-rule="evenodd" d="M4 8.8c0-1.68 0-2.52.327-3.162a3 3 0 011.311-1.311C6.28 4 7.12 4 8.8 4h.4c1.68 0 2.52 0 3.162.327a3 3 0 011.311 1.311C14 6.28 14 7.12 14 8.8v.4c0 1.68 0 2.52-.327 3.162a3 3 0 01-1.311 1.311C11.72 14 10.88 14 9.2 14h-.4c-1.68 0-2.52 0-3.162-.327a3 3 0 01-1.311-1.311C4 11.72 4 10.88 4 9.2v-.4zM8.8 5h.4c.857 0 1.439 0 1.889.038.438.035.663.1.819.18a2 2 0 01.874.874c.08.156.145.38.18.819C13 7.361 13 7.943 13 8.8v.4c0 .857 0 1.439-.038 1.889-.035.438-.1.663-.18.819a2 2 0 01-.874.874c-.156.08-.38.145-.819.18C10.639 13 10.057 13 9.2 13h-.4c-.857 0-1.439 0-1.889-.038-.438-.035-.663-.1-.819-.18a2 2 0 01-.874-.874c-.08-.156-.145-.38-.18-.819C5 10.639 5 10.057 5 9.2v-.4c0-.857 0-1.439.038-1.889.035-.438.1-.663.18-.819a2 2 0 01.874-.874c.156-.08.38-.145.819-.18C7.361 5 7.943 5 8.8 5z" fill="#fff"/><defs><radialGradient id="paint0_radial_687_86" cx="0" cy="0" r="1" gradientUnits="userSpaceOnUse" gradientTransform="rotate(-55.376 15.994 .494) scale(15.9498)"><stop stop-color="#B13589"/><stop offset=".793" stop-color="#C62F94"/><stop offset="1" stop-color="#8A3AC8"/></radialGradient><radialGradient id="paint1_radial_687_86" cx="0" cy="0" r="1" gradientUnits="userSpaceOnUse" gradientTransform="rotate(-65.136 17.321 4.589) scale(14.1214)"><stop stop-color="#E0E8B7"/><stop offset=".445" stop-color="#FB8A2E"/><stop offset=".715" stop-color="#E2425C"/><stop offset="1" stop-color="#E2425C" stop-opacity="0"/></radialGradient><radialGradient id="paint2_radial_687_86" cx="0" cy="0" r="1" gradientUnits="userSpaceOnUse" gradientTransform="matrix(24.0625 -3.4375 .73525 5.14672 -.687 .875)"><stop offset=".157" stop-color="#406ADC"/><stop offset=".468" stop-color="#6A45BE"/><stop offset="1" stop-color="#6A45BE" stop-opacity="0"/></radialGradient></defs></svg>