<svg width="81" height="22" fill="none" xmlns="http://www.w3.org/2000/svg"><path d="M11.274 0C9.143 0 7.06.645 5.288 1.854A10.955 10.955 0 001.32 6.79a11.215 11.215 0 00-.613 6.356 11.073 11.073 0 002.948 5.632 10.707 10.707 0 005.517 3.01c2.09.425 4.256.207 6.224-.625a10.825 10.825 0 004.835-4.052A11.165 11.165 0 0022.047 11a11.12 11.12 0 00-3.155-7.778A10.662 10.662 0 0011.274 0zm4.943 15.864a.679.679 0 01-.417.312.657.657 0 01-.511-.084c-2.528-1.58-5.71-1.932-9.458-1.062a.649.649 0 01-.694-.267.699.699 0 01.154-.957.665.665 0 01.239-.11c4.101-.958 7.626-.545 10.464 1.228a.696.696 0 01.224.94zm1.316-2.994a.845.845 0 01-1.152.28 13.87 13.87 0 00-10.73-1.28.847.847 0 01-1.053-.175.883.883 0 01-.216-.724.889.889 0 01.416-.627.847.847 0 01.362-.117c2.01-.59 4.116-.765 6.194-.513 2.078.251 4.085.925 5.904 1.98a.893.893 0 01.275 1.176zm.112-3.117c-3.44-2.107-9.192-2.3-12.51-1.273a.988.988 0 01-.767-.077 1.023 1.023 0 01-.489-.607 1.054 1.054 0 01.075-.783c.126-.24.34-.42.596-.499 3.809-1.176 10.128-.948 14.127 1.466a1.045 1.045 0 01.277 1.364c-.13.221-.337.384-.58.457a.987.987 0 01-.73-.065v.017z" fill="#1ED760"/><path d="M33.288 9.258c-2.064-.51-2.434-.878-2.434-1.598 0-.72.645-1.176 1.609-1.176a4.646 4.646 0 012.82 1.097.112.112 0 00.103 0 .144.144 0 00.086-.053l1.014-1.457a.152.152 0 000-.184 6.01 6.01 0 00-3.972-1.405c-2.227 0-3.783 1.37-3.783 3.319 0 2.098 1.341 2.844 3.663 3.415 1.977.465 2.312.878 2.312 1.554 0 .675-.68 1.246-1.72 1.246a4.679 4.679 0 01-3.284-1.387.16.16 0 00-.103 0 .208.208 0 00-.095.053l-1.152 1.36a.144.144 0 000 .194 6.662 6.662 0 004.557 1.755c2.399 0 3.956-1.343 3.956-3.415-.035-1.73-1.067-2.695-3.577-3.318zm8.976-2.082a3.193 3.193 0 00-1.434.331c-.448.22-.84.543-1.145.942v-.965a.14.14 0 00-.137-.132h-1.866a.137.137 0 00-.095.038.143.143 0 00-.043.094v10.71a.138.138 0 00.138.14h1.848a.136.136 0 00.097-.04.143.143 0 00.04-.1v-3.362a3.34 3.34 0 001.158.896 3.26 3.26 0 001.422.306c1.935 0 3.895-1.518 3.895-4.433S44.2 7.176 42.264 7.176zm1.72 4.39a2.321 2.321 0 01-.546 1.747 2.25 2.25 0 01-.735.56 2.2 2.2 0 01-.894.212 2.259 2.259 0 01-.896-.217 2.293 2.293 0 01-.74-.559 2.36 2.36 0 01-.583-1.743 2.387 2.387 0 01.586-1.738 2.3 2.3 0 01.738-.557 2.26 2.26 0 01.895-.216c.313.006.621.078.905.211a2.306 2.306 0 011.203 1.391c.094.305.126.626.092.944l-.025-.035zm7.196-4.389a4.29 4.29 0 00-2.4.79 4.427 4.427 0 00-1.568 2.019 4.531 4.531 0 00-.208 2.566 4.475 4.475 0 001.223 2.253 4.322 4.322 0 002.242 1.182 4.265 4.265 0 002.507-.288 4.375 4.375 0 001.93-1.66 4.508 4.508 0 00-.62-5.605 4.35 4.35 0 00-1.43-.945 4.28 4.28 0 00-1.675-.312zm0 6.962a2.317 2.317 0 01-.921-.206 2.358 2.358 0 01-.77-.558 2.447 2.447 0 01-.63-1.774 2.354 2.354 0 01.615-1.752 2.3 2.3 0 01.76-.547 2.28 2.28 0 01.912-.194 2.364 2.364 0 011.702.753 2.43 2.43 0 01.645 1.775c.02.323-.025.645-.132.949a2.358 2.358 0 01-.491.816 2.308 2.308 0 01-.77.548c-.29.127-.604.191-.92.19zm9.751-6.786h-2.037V5.228a.14.14 0 00-.13-.14h-1.849a.136.136 0 00-.097.041.142.142 0 00-.04.1v2.124h-.911a.127.127 0 00-.12.081.126.126 0 00-.01.05V9.11c0 .035.014.07.038.096a.138.138 0 00.092.044h.86v4.196c0 1.695.86 2.555 2.459 2.555a3.233 3.233 0 001.72-.439.12.12 0 00.05-.046.127.127 0 00.018-.068v-1.545a.154.154 0 00-.06-.123.128.128 0 00-.138 0 2.351 2.351 0 01-1.083.263c-.593 0-.86-.272-.86-.877V9.248h2.038a.136.136 0 00.097-.041.142.142 0 00.04-.1V7.486a.14.14 0 00-.077-.132zm7.093.008v-.263c0-.772.284-1.115.929-1.115.358.004.714.073 1.049.202a.144.144 0 00.12 0 .142.142 0 00.052-.114V4.464a.14.14 0 00-.095-.14 5.217 5.217 0 00-1.539-.176c-1.72 0-2.58.984-2.58 2.836v.404h-.86a.132.132 0 00-.13.132v1.632a.14.14 0 00.13.14h.86v6.48c0 .034.014.068.038.093a.128.128 0 00.092.038h1.813a.137.137 0 00.095-.038.143.143 0 00.043-.093V9.249h1.72l2.648 6.47c-.3.685-.601.816-1.006.816a2.133 2.133 0 01-1.014-.29.126.126 0 00-.112 0 .116.116 0 00-.046.027.12.12 0 00-.032.044l-.576 1.396a.147.147 0 00-.002.1.14.14 0 00.063.075 3.773 3.773 0 001.977.518c1.359 0 2.115-.65 2.786-2.396l3.207-8.463a.141.141 0 000-.132.135.135 0 00-.112-.053h-1.977a.153.153 0 00-.13.088l-1.968 5.75-2.124-5.75a.136.136 0 00-.13-.088h-3.19zm-4.11-.007h-1.848a.14.14 0 00-.138.14v8.235c0 .077.062.14.138.14h1.848a.139.139 0 00.138-.14V7.494a.139.139 0 00-.138-.14zm-.92-3.758a1.313 1.313 0 00-.743.225 1.35 1.35 0 00-.494.609 1.373 1.373 0 00.283 1.486 1.31 1.31 0 001.453.299c.244-.103.453-.278.6-.502a1.392 1.392 0 00.127-1.277 1.328 1.328 0 00-.717-.737 1.303 1.303 0 00-.509-.103zm16.199 6.399a1.267 1.267 0 01-.92-.385 1.323 1.323 0 01-.378-.94c0-.354.138-.693.383-.944a1.294 1.294 0 011.845-.005 1.322 1.322 0 01.377.94c0 .354-.137.693-.382.944-.246.25-.578.39-.925.39zm0-2.528a1.16 1.16 0 00-.657.2 1.19 1.19 0 00-.438.539 1.226 1.226 0 00.254 1.314 1.156 1.156 0 001.288.259c.215-.092.399-.247.528-.446.128-.2.196-.433.195-.672a1.208 1.208 0 00-.337-.844 1.161 1.161 0 00-.824-.35h-.009zm.292 1.335l.362.526h-.31l-.327-.483h-.283v.483h-.267V7.932h.611c.318 0 .533.167.533.44a.447.447 0 01-.084.268.429.429 0 01-.226.162h-.009zm-.223-.633h-.335v.44h.335c.172 0 .275-.08.275-.22s-.094-.22-.266-.22h-.009z" fill="#000"/></svg>