<svg width="16" height="18" fill="none" xmlns="http://www.w3.org/2000/svg"><path d="M3.282 11.37c.098-.808.43-1.26 1.054-1.725.894-.629 2.012-.273 2.012-.273v-2.11c.271-.007.543.01.811.049v2.714s-1.116-.355-2.01.274c-.625.463-.958.917-1.055 1.725-.003.44.08 1.013.459 1.51a3.71 3.71 0 01-.287-.165c-.836-.561-.988-1.403-.984-1.998zm8.49-8.008c-.615-.674-.848-1.355-.932-1.833h.774s-.154 1.254.97 2.487l.016.016a4.46 4.46 0 01-.828-.67zM15.5 5.273v2.66s-.988-.038-1.718-.224c-1.02-.26-1.677-.66-1.677-.66s-.453-.284-.49-.303v5.493c0 .305-.083 1.07-.338 1.706-.334.834-.848 1.38-.943 1.493 0 0-.626.74-1.73 1.237-.995.45-1.868.438-2.13.45 0 0-1.51.06-2.868-.824a5.706 5.706 0 01-.82-.658l.007.004c1.36.883 2.87.824 2.87.824.26-.012 1.134 0 2.129-.45 1.103-.498 1.73-1.237 1.73-1.237.093-.112.61-.659.942-1.493.255-.636.34-1.4.34-1.706V6.092c.036.02.488.305.488.305s.657.399 1.677.659c.731.186 1.719.224 1.719.224V5.196c.337.076.625.096.812.077z" fill="#EE1D52"/><path d="M14.688 5.196V7.28s-.987-.04-1.719-.225c-1.02-.26-1.676-.659-1.676-.659s-.453-.284-.49-.304v5.493c0 .306-.083 1.07-.339 1.707-.333.834-.848 1.38-.942 1.493 0 0-.626.74-1.73 1.237-.994.45-1.868.438-2.13.45 0 0-1.51.06-2.869-.824l-.006-.005a5.198 5.198 0 01-.405-.44 5.214 5.214 0 01-.766-1.334c-.108-.31-.334-1.055-.303-1.776.055-1.273.502-2.054.62-2.25a5.346 5.346 0 011.206-1.41c.427-.346.91-.62 1.432-.813a4.981 4.981 0 011.777-.358v2.11s-1.118-.354-2.011.273c-.625.464-.957.917-1.055 1.726-.004.595.148 1.437.984 1.998.097.062.193.117.287.165.145.19.323.355.525.49.816.516 1.5.552 2.374.216.583-.224 1.022-.73 1.225-1.29.128-.35.127-.701.127-1.065V1.529h2.034c.084.478.317 1.159.932 1.833.247.255.525.48.828.67.09.093.547.55 1.135.832.304.145.624.257.955.332z" fill="#000"/><path d="M.806 13.223v.002l.05.137-.05-.139zM4.57 7.62a5.083 5.083 0 00-1.431.812c-.484.401-.892.88-1.205 1.414-.118.195-.566.977-.62 2.25-.031.72.194 1.466.302 1.776v.002c.068.177.333.802.766 1.332.126.154.262.301.405.44a5.561 5.561 0 01-1.217-1.094 5.229 5.229 0 01-.764-1.33v-.002c-.108-.31-.335-1.054-.303-1.776.055-1.273.502-2.054.62-2.25A5.34 5.34 0 012.329 7.78c.427-.345.91-.62 1.432-.812a5.067 5.067 0 012.59-.307v.601a4.987 4.987 0 00-1.78.358z" fill="#69C9D0"/><path d="M10.84 1.529H8.805v10.356c0 .364 0 .715-.126 1.066-.206.56-.643 1.065-1.225 1.29-.875.336-1.559.299-2.374-.218a2.194 2.194 0 01-.527-.488c.695.356 1.317.35 2.087.053.582-.224 1.02-.73 1.225-1.29.128-.35.127-.701.127-1.065V.875h2.81s-.032.257.038.654zm3.848 3.09v.577a4.555 4.555 0 01-.953-.332 4.32 4.32 0 01-1.135-.832c.104.065.211.125.322.178.715.342 1.419.444 1.766.41z" fill="#69C9D0"/></svg>