<svg width="19" height="15" fill="none" xmlns="http://www.w3.org/2000/svg"><path d="M6.368 14.5a10.16 10.16 0 01-5.493-1.603c1.347.087 3.724-.121 5.202-1.531-2.224-.103-3.227-1.808-3.358-2.537.19.073 1.09.16 1.6-.044-2.56-.641-2.952-2.887-2.864-3.572.48.335 1.293.452 1.613.423C.684 3.93 1.542 1.364 1.963.81 3.674 3.18 6.238 4.512 9.41 4.586a3.64 3.64 0 013.543-4.46 3.62 3.62 0 012.657 1.157c.7-.164 1.755-.549 2.27-.881-.26.933-1.068 1.711-1.558 2-.003-.01.005.01 0 0 .43-.065 1.594-.289 2.053-.6-.227.524-1.085 1.395-1.789 1.883C16.717 9.461 12.298 14.5 6.368 14.5z" fill="#47ACDF"/></svg>