<svg width="234" height="261" fill="none" xmlns="http://www.w3.org/2000/svg"><path d="M15.852 209.033c-6.448-8.738-12.865 3.014-9.924 9.808 1.174 2.711 1.287 5.978 4.405 6.892.964.283 1.826 1.444 2.892 1.444 1.798 0 2.466-.435 4.06-.981m.955 1.471c1.31 6.896 1.819 14.445 5.147 20.596 2.519 4.655 7.677 9.155 12.975 9.835 3.444.442 6.277 1.409 9.844.572 2.739-.643 5.247-1.781 7.907-2.561 2.202-.646 4.109-2.222 5.678-3.923 2.005-2.173 2.821-5.011 4.405-7.247 1.072-1.513 1.326-4.904 1.326-6.756 0-2.477.478-4.712.478-7.192 0-5.352-1.91-10.531-1.91-15.828 0-1.55-.868-3.031-.956-4.659-.115-2.13-.604-4.95-.981-7.083-.349-1.968-.929-4.012-.929-6.048 0-3.355-1.271.002-2.866-1.09m-46.805 5.885c-1.169-4.35-.335-8.923-2.15-13.022-1.1-2.488.177-6.267.61-8.718.314-1.767.107-3.682.107-5.476 0-1.553 1.182-2.428 1.406-3.923.216-1.442-.59-2.905-1.884-3.569-1.244-.639-.674-.23.213-1.089.497-.483 2.385-1.333 2.149-2.18-.161-.58-.903-.321 1.035-.763 1.608-.367 3.634-1.961 5.2-1.961 1.661 0 2.681-.352 4.405-.981 1.871-.683 2.738 1.131 3.98.899 1.469-.274 2.56-2.316 4.245-2.316.182 0 .939.894 1.805.927 1.321.05 2.864.942 4.192.381.884-.374.138 1.312 1.194 1.553 2.354.537 4.642-1.869 6.686-2.643 1.966-.743 1.132.063.61 1.199-.327.715 3.953.718 4.777.872 2.216.414 1.153.276-.106 1.335-1.684 1.414.767 1.716 1.91 1.716 2.299 0 1.71-.167 1.645 1.58-.07 1.857.322 1.693 1.433 2.833.745.766.813 1.985 1.672 2.67.821.657 2.627-.71 2.096 1.063-.522 1.741-1.745 3.208-2.23 4.985-.314 1.156 2.187.992 2.76 1.58 1.522 1.562-.116 2.131-.45 3.678-.259 1.193.649 1.571.901 2.479.296 1.062-1.4 1.548-.822 2.67.63 1.222.852.976-.106 2.452" stroke="#4D4D4D" stroke-width="3" stroke-linecap="round" stroke-linejoin="round"/><path d="M6.777 167.351c-1.064.64-4.769 2.565-1.91 4.032 1.195.614-.27-.209.026 2.071.35 2.694 1.159 2.378-.743 4.931-1.53 2.056-.074 2.952-1.088 5.149-.575 1.247-1.01 2.922-1.061 4.304-.08 2.154 4.681 3.059 3.529 4.768-.5.741-1.953 1.782-1.884 2.806.11 1.64 2.757 3.286 3.794 4.304.51.5 1.98 1.826 1.141 2.452-.951.711.002.64.478 1.471.393.686 1.327 1.962 1.327 1.962s-.454-3.519-1.035-5.177c-.518-1.476-1.381-2.517-2.362-3.65-.386-.446.736-.949 1.009-1.281 1.927-2.339 2.547-8.581-.743-10.27-.594-.305.192 1.488.716 1.907.981.783 1.13-3.423 1.088-3.814-.26-2.374-1.086-3.948-2.706-5.612-1.108-1.138-.74-.91.45-1.063 1.515-.194 3.305-1.807 1.646-3.133-1.163-.929.504 3.433 1.194 4.141" stroke="#4D4D4D" stroke-width="3" stroke-linecap="round" stroke-linejoin="round"/><path d="M14.896 205.11c.687.902 1.8 1.638 2.388 2.561.54.847.516 1.931.956 2.833 1.11 2.28 1.91-1.527 1.91-2.561 0-.89-.89-4.54-1.804-1.961-.205.577.362-1.048.371-1.471.034-1.545-.005-3.095-.477-4.577-.751-2.356-2.593-5.114-4.299-6.865-.428-.44.843 1.006 1.433 1.144 1.321.31 1.888-.623 1.91-1.853.016-.86-1.871-7.904-3.714-5.775-.088.101 3.237 1.539 3.237-1.335 0-1.192-2.177-2.743 0-1.253 2.114 1.447 4.681.044 5.917-1.907 1.582-2.499-1.49-2.892 1.035-.3 2.282 2.343 5.762.841 7.562-1.417.461-.579 2.25 1.731 4.112 1.39 1-.183 4.524-2.844 5.254-1.907 2.238 2.872 7.032 2.325 10.03 2.207 1.152-.046 6.19-3.582 4.298-4.795-1.18-.758-1.448 2.765.478 1.253 2.642-2.074 1.081-4.822-.955-6.375-2.058-1.57.272-.411-.107-2.452-.486-2.624-3.575-6.294-6.474-4.468-3.822 2.409 1.592 4.885 1.592 1.907 0-3.956-7.25-5.576-9.976-4.086-2.723 1.487 1.21 1.68-.186 1.09-1.78-.753-3.873-1.056-5.785-1.172-.768-.046-2.268.284-2.918-.272-.983-.841-3.353-1.567-4.59-1.962-4.269-1.36-3.758 2.504-2.15 5.531 1.54 2.899-4.945 1.081-6.155.899-3.244-.49-5.169 4.059-1.752 4.059 1.27 0 .293-.538-.265-.681-1.792-.46-3.373.266-4.67 1.553-2.959 2.936-1.754 9.359 3.21 7.737 1.706-.557-.333-1.58-1.167-1.58-2.551 0-5.677 1.61-6.527 4.195-1.574 4.784 10.27-1.316 11.622-2.452.9-.756 1.864-1.537.743-2.452-.882-.719-3.568-2.397-2.442-2.397.635 0 3.247 2.438 4.087 2.779 1.377.559 3.788 1.25 5.041 0 2.919-2.912-2.788-4.263-2.547-3.596 1.803 4.999 10.667 2.029 13.426 0 1.07-.787 1.175-2.095-.372-1.254-1.68.914-3.061 3.088-2.335 5.068 1.717 4.677 12.179 2.322 12.949-2.125.237-1.373-2.236-1.993-3.131-1.472-2.292 1.338-.298 3.893 1.486 4.223 4.665.862 12.77-4.694 5.545-7.873-1.565-.689-4.481-1.067-5.598.654-1.368 2.106 2.734 2.009 3.688 1.825 8.32-1.602-1.46-6.311-3.98-7.737-2.026-1.146-7.153-4.529-5.36.627.229.657-1.168-1.336-1.406-1.58-1.387-1.424-3.354-2.483-5.254-2.888-2.246-.479-5.064-.473-6.766 1.362-1.12 1.207.233 1.617 1.3 1.716.361.034 2.54.111 1.566-.735-1.436-1.248-3.6-1.239-5.36-1.444-1.29-.151-4.212-.575-4.67 1.307-.476 1.953 1.325 5.111 2.839 6.185 1.624 1.151.24.112-.69-.273-1.468-.608-3.814-1.391-5.413-.981-1.896.487 2.325 2.176 2.547 2.234 3.215.842 7 .268 10.083-.871.744-.275 3.871-1.776 2.813-3.052-.41-.494-1.741-1.329-2.176-.381-1.093 2.384 7.034 1.265 7.907.708.891-.568-3.529-1.942-2.919 1.253.66 3.455 6.217 3.525 8.173 1.363 1.974-2.183-1.82-2.463-.637-.491 1.344 2.242 2.396-.31-1.008-1.117-5.086-1.205-8.35.973-13.214 1.662-3.324.471-3.04 1.936-5.095 4.196-2.014 2.216-3.966 1.253-6.182 2.533-2.165 1.25-.748 6.849-1.008 8.99-.25 2.056-4.226.481-4.909 3.487-.407 1.79.8 3.686 2.096 4.795.598.512 2.646.857 2.972 1.526.44.902-1.986-.137-2.945.082-1.271.29-1.02 2.142-.743 3.078.805 2.715 2.61 4.777 3.078 7.655m.955 13.24c-.976-1.377-1.498-2.154-1.433-3.814.042-1.081.648-.478-.212-1.362-.653-.67-2.148-.765-2.654.273" stroke="#4D4D4D" stroke-width="3" stroke-linecap="round" stroke-linejoin="round"/><path d="M28.747 203.149c1.526-2.006 3.283-2.637 5.625-3.324 1.264-.371 3.639-.21 3.45-.599m14.328-.981c1.928-.387 4.123-1.069 5.73.49.572.554 3.556 1.962 1.911 1.962m-22.925 8.827s0 0 0 0m18.627-.491s0 0 0 0m-8.12-3.432c0 6.052 4.218 11.846 5.758 17.381.656 2.355-.192 2.724-2.653 2.724-2.396 0-3.62-.187-5.015 1.961" stroke="#4D4D4D" stroke-width="3" stroke-linecap="round" stroke-linejoin="round"/><path d="M123.045 148.776c-3.139-2.269-5.086-1.963-7.949.688-2.674 2.477-3.536 7.07-1.132 10.021 3.729 4.578 12.159 3.195 14.925-1.609 1.342-2.331.932-.516 1.816.199 2.2 1.78 3.332 1.912 5.542-.183 2.657-2.519 4.816-12.676-1.737-11.336-.728.15-3.067 1.769-1.966 1.544 1.457-.298 1.426-2.092 1.065-3.223-.965-3.016-5.184-4.487-7.841-3.366-1.985.837-2.489 3.274-4.086 4.196-1.543.891-7.662 6.109-2.923 5.544M84.943 162.99c-2.423-.473-5.277-1.179-5.889 2.111-.455 2.446 2.045 5.52 4.639 5.111.904-.143 3.883-1.533 4.472-.944 1.48 1.479 2.371-.227 3.278-1.667 1.059-1.682-.544-7.093-2.75-7.583-1.402-.312-6.93 3.632-6.25 3.972" stroke="#4D4D4D" stroke-width="2.5" stroke-linecap="round" stroke-linejoin="round"/><path d="M125.045 70.166c2.741-3.56 7.679-7.284 12.508-7.015 2.151.12 3.203 4.962 3.892 6.514 2.442 5.503-9.859 6.22-7.394 11.776.468 1.054 1.871 1.453 2.78 2.032 1.929 1.23 2.223.65 2.223-1.28 0-1.495-3.238-5.38-1.501-6.404 4.714-2.776 3.698-10.133-2.251-10.133-4.573 0-11.258.84-11.258 6.765 0 2.952 2.496 2.083 3.725.501 1.483-1.91 2.538-4.26 5.281-4.26 1.926 0 5.7-.744 6.004 2.005.052.466 1.058 2.68.89 2.895-.696.896-1.392 2.247-1.89 3.369-.835 1.881-3.503 1.633-3.503 4.009 0 1.587.086 1.86 1.001 3.006.303.38 2.071 1.391 1.501.25m3.504 7.016c.104 4.169 2.142 1.616.611.39-1.013-.812-1.297 1.41-.111 2.004 1.332.667 1.024-2.696.611-2.282-1.073 1.074 1.205 3.976-1.111 3.396" stroke="#CD4631" stroke-width="3" stroke-linecap="round" stroke-linejoin="round"/><path d="M114.195 26.235c-6.516-8.327-17.878-5.75-24.888.75-6.826 6.329-11.02 22.2-4.727 30.082 1.751 2.192 3.293 4.628 5.358 6.533.736.68-1.892.705-2.883.852-3.066.456-4.576 3.77-3.739 6.624.44 1.497 1.668 2.526 3.15 2.861 1.022.231 1.246.593.07.71-2.756.276-4.717.424-6.607 2.736-2.79 3.414-1.53 6.362 1.776 8.582 3.342 2.245 2.725 3.235-.386 5.11-2.465 1.486-3.39 4.502-4.243 7.213-1.476 4.688-3.578 11.755.574 15.515 5.199 4.709 12.981 4.891 19.447 3.689 2.149-.399 4.706-.582 6.385-2.15.453-.423 1.683-1.941.393-2.216-2.301-.492-3.135 3.633-3.255 5.064-.849 10.138 14.287 13.599 21.588 12.337 4.743-.82 8.892-3.11 12.617-6.078 2.932-2.336 7.057-4.927 8.999-8.252.938-1.604.595.267 1.145 1.73 1.315 3.498 5.11 2.828 7.971 1.968a18.401 18.401 0 009.665-6.961c.342-.485 2.071-3.696 2.361-3.258 3.548 5.349 5.672-2.177 8.707-3.997.508-.304 1.458 3.154 1.751 3.718 2.216 4.263 4.527 8.092 9.525 9.344 10.699 2.679 21.903-1.857 29.304-9.567 3.117-3.247 4.838-7.736.891-11.333-.954-.87 2.056.137 2.619.096 3.093-.225 7.573-.614 9.826-3.032 2.567-2.756 3.95-5.2 2.934-9.054-.71-2.695-2.269-4.297-4.825-5.306-1.125-.444-3.389-.526-1.742-1.567 1.652-1.045 2.419-3.678 2.569-5.533.235-2.928-1.775-4.923-4.375-5.915-1.172-.447-4.776.017-4.173-.043 2.006-.201 3.109-8.067 2.96-9.569-.666-6.676-7.351-11.878-14.133-11.443-1.124.072-2.275.74-1.423-.422.977-1.332 1.027-3.723 1.419-5.264 2.207-8.684-1.359-16.02-8.135-21.573-5.577-4.57-14.166-7.084-20.878-3.93-.433.204-3.251 3.476-2.399 3.391 1.3-.13.884-3.252.708-3.938-.828-3.22-4.615-5.887-7.378-7.305-4.071-2.088-9.961-1.368-14.239-.188-3.77 1.04-6.611 3.498-8.556 6.798-1.031 1.749-.157 3.21-1.434 2.04-2.07-1.9-2.83-3.143-6.067-2.877-3.814.313-7.293 1.312-10.322 3.697-1.551 1.22-2.939 3.871-2.736 5.909.003.03-.427-1.93-.729-2.694-1.631-4.114-7.085-3.974-9.98-1.076-1.22 1.221-1.917 3.08-2.055 4.79-.072.896-.573 3.745-.82 1.261" stroke="#4D4D4D" stroke-width="2.5" stroke-linecap="round" stroke-linejoin="round"/><path d="M153.478 41.104c-.735-4.204 3.905-4.668 7.228-5.512 2.637-.67 5.15-1.227 7.672.223 1.641.943 3.949 3.36 4.087 5.29.512 7.179-5.771 11.524-12.677 11.524-2.892 0-2.782 5.207-2.807 7.016-.041 2.922-.728 5.748-.39 8.686.094.808.573 5.266 1.891 3.758 2.183-2.498 2.502-7.812 2.502-10.94 0-2.98-.832-5.578 2.251-6.766 2.728-1.05 6.044-2.257 7.867-4.76 2.622-3.598 3.135-8.604.362-12.25-2.344-3.08-8.9-3.218-12.482-3.284-4.695-.087-6.851 2.617-9.229 6.514-1.424 2.333-.705 6.26 2.724 5.4 3.665-.917 6.215-3.05 8.785-5.623 1.375-1.377 5.192-.434 6.727.334 1.828.915.738 4.074.222 5.401-2.061 5.308-8.914 5.131-10.619 9.91-1.287 3.611-1.112 7.333-1.112 11.108 0 1.166-.757 4.931 1.501 3.926 4.307-1.917 2.289-10.067 2.502-13.92.123-2.207 3.037-2.523 4.504-3.257 1.774-.888 4.231-3.492 5.115-5.261 1.199-2.402 1.418-6.063-.362-8.24-2.218-2.716-5.986-1.053-8.256-2.785-1.971-1.504-6.115 3.618-7.506 5.011-.547.548-1.158 1.029-1.751 1.504-.269.215-1.054 1.781-1.251 1.781-.617 0 .726-1.025 1.223-1.392 1.677-1.234 3.25-2.643 4.476-4.342 1.365-1.893 3.576-1.058 5.81-1.058 1.283 0 4.181-.558 5.254.278 1.626 1.266 2.218 2.406-.25 3.23m-8.507 37.582c-7.297 1.644 3.246 4.635 1.89.39-.46-1.44-2.519-.921-1.863.612.289.676 2.921 1.82.473 1.003" stroke="#CD4631" stroke-width="3" stroke-linecap="round" stroke-linejoin="round"/><path d="M189.135 96.05c3.434 0 7.887-.802 11.225.173 1.95.57 2.982 1.808 4.382 3.123 1.658 1.556 3.641 3.632 3.395 6.088-.299 2.997-4.159 4.471-6.565 5.274-3.433 1.146-7.999.935-11.571.399-2.815-.423-7.797-1.311-8.903-4.511-.899-2.599 1.04-3.99 3.256-4.614a87.584 87.584 0 0110.532-2.255c1.704-.258 5.575-1.398 7.275-.243.713.485 1.43 2.599 1.594 3.418.262 1.315-.436 2.044-1.542 2.654-2.424 1.335-5.376 1.953-8.037.954-3.529-1.326.965-4.375 2.927-4.51 2.313-.16 3.198.763 4.019 2.931.58 1.532.563 2.493-1.368 2.654-2.299.192-4.692-.007-6.877-.746-3.402-1.15-7.818-3.161-10.151-6.036-1.087-1.34-1.074-3.132-1.074-4.753 0-2.689.023-2.471 3.084-2.498 5.292-.048 10.572-.313 15.866-.313 1.658 0 3.195-.169 4.677.694 1.021.594 1.06.849 1.005 2.012-.199 4.188-4.838 5.258-8.107 6.349M96.533 57.644c-.486-2.494-2.048-4.782-2.98-7.182-.81-2.088-1.073-4.798-1.073-7.043 0-4.292.602-8.928 4.434-11.691 2.935-2.117 8.329-3.142 11.224-.243 2.815 2.819 2.388 7.258 3.205 10.859.85 3.748-1.03 9.579-5.145 10.738-1.34.377-4.77 1.227-5.768-.157-1.447-2.006-1.925-5.018-2.58-7.354-.705-2.51-3.193-8.518.848-9.732 5.019-1.508 7.117 6.793 7.431 10.183.184 1.987.337 3.74-1.005 5.308-.559.653-2.999 2.467-3.758 1.283-1.055-1.642-1.824-9.524.467-9.645.54-.028 2.104-.235 2.425.313.58.986-.125 2.546-1.039 2.949-1.796.791-2.321.677-2.321-1.232 0-1.739.752-3.055 2.737-2.203.977.42 1.09 2.34 1.247 3.192.495 2.685.381 5.435.381 8.153 0 4.196-3.135 6.497-5.924 9.436m-.937 46.212c-3.688 0-6.928.302-9.977-1.943-2.085-1.535-2.806-2.997-2.806-5.62 0-1.862.21-3.36 1.559-4.788 1.253-1.326 2.395-1.362 4.157-1.77.65-.15 5.248-1.415 5.75-.242.735 1.716-.24 4.643-1.177 6.106-1.04 1.622-1.957 3.218-3.742 4.129-.397.202-3.376 1.343-3.43.381-.1-1.8.16-3.143 1.248-4.614.654-.884 3.122-.429 4.053-.382 3.372.174 1.867 8.569-1.802 4.753-.787-.819-.912-2.455-.346-3.4 2.062-3.442 5.728-4.93 9.319-6.036M209.713 65.45c1.651-1.008 3.118-2.28 3.118-4.372 0-1.337.332-2.665-.797-3.59-.829-.68-7.193-3.216-7.309-.78-.081 1.691 0 3.405 0 5.1 0 1.842 1.957 1.479 3.36 1.456 2.605-.042 2.925-1.995 1.923-4.337-.54-1.26-2.363-2.145-3.066-.208-.367 1.011 4.678.174 1.212.174m11.198 30.377c.688 0 2.624-.236 2.855.808.205.923-.129 1.463-.796 1.983-1.461 1.138-5.304.585-4.446-1.914.61-1.777 2.41-2.958 4.277-3.028.45-.017 1.008-.157 1.244.269.229.412.108 1.227-.09 1.624-.568 1.14-1.634 2.117-2.825 2.271-1.668.216-5.591.985-5.591-1.474" stroke="#4D4D4D" stroke-width="1.5" stroke-linecap="round"/></svg>