<svg width="158" height="168" fill="none" xmlns="http://www.w3.org/2000/svg"><path d="M112.399 91.86c-.5-3.6-.728-6.96-1.465-10.471-1.044-4.974-4.601-9.446-7.064-13.834-4.818-8.582-9.871-18.281-19.01-22.818-8.65-4.294-15.851-2.607-24.48.453-5.293 1.877-8.883 12.282-10.416 17.065-2.51 7.832-3.997 14.358-2.604 22.657 1.064 6.34 3.252 15.892 7.617 20.911 2.05 2.356 3.203 4.285 5.827 6.076 1.752 1.196 3.758 2.358 5.306 3.814 2.881 2.71 7.283 3.159 10.254 6.109 2.614 2.595 6.392 3.545 7.291 7.563.572 2.553 1.889 7.665 5.306 7.854 8.477.467 19.031-2.851 25.749-7.854 2.949-2.196 3.289-7.037.911-9.923-2.818-3.42-2.898-10.489-3.222-14.673-.28-3.612-2.192-7.543-.456-11.183 2.768-5.801 3.429-12.527 2.507-18.94-1.329-9.236-.048-17.294-6.446-24.984-2.453-2.948-5.441-5.726-8.17-8.436-3.414-3.389-6.731-6.895-11.914-6.98-7.838-.13-17.401-.1-23.438 5.688-2.59 2.482-6.25 5.43-7.454 8.888-2.179 6.248-1.295 12.272-.586 18.746 1.351 12.343 1.258 27.493 10.84 37.007 2.673 2.654 4.123-1.461 4.557-3.426.714-3.232-.542-6.761-.912-9.955-.51-4.408-1.678-8.51-3.06-12.734-.754-2.308-4.197-17.754-9.049-14.221-5.755 4.19-4.432 19.836-2.864 25.21 1.657 5.681 6.073 16.518 14.03 14.479 7.448-1.908 9.794-10.733 5.436-16.45-2.05-2.691-9.468-9.297-10.352-2.166-.897 7.241 4.917 16.055 10.091 20.459 3.304 2.811 10.227 5.16 11.914-.873.993-3.55-5.521-8.953-8.789-8.274-7.685 1.597 1.182 16.582 2.995 19.489 2.148 3.446 14.794 10.898 12.24 1.907-.69-2.431-6.782-9.37-9.799-7.498-5.357 3.324 6.099 15.172 8.952 16.419 4.27 1.865 4.025-2.622 2.149-4.978-1.635-2.052-5.2-4.688-3.776.162.978 3.33 4.116 11.212 8.789 10.31 4.941-.954 2.202-12.73 1.172-15.384-.863-2.223-2.65-6.778-5.013-7.951-2.093-1.039-.43 4.082-.228 4.589 1.272 3.207 4.543 11.054 8.886 11.054 5.292 0 .563-12.196-.13-13.866-.75-1.809-1.505-4.975-3.515-5.882-1.66-.749-.196 5.265 0 5.882.496 1.569 3.919 15.764 7.877 13.995 4.824-2.155 1.711-11.907.847-15.417-.885-3.591-2.075-7.076-3.06-10.633-.553-1.996-.755-1.395-.261.323.254.883 1.288 2.787 2.474 2.198 2.109-1.047 1.85-5.594 2.051-7.466.778-7.264.105-14.996-.423-22.27-.353-4.86-.798-8.62-3.353-12.637-3.801-5.975-4.491-11.734-11.035-15.869-4.87-3.076-10.58-7.07-16.244-3.879-7.327 4.13-12.807 13.247-15.983 20.75-1.251 2.957-2.53 12.486 3.223 7.854 3.893-3.134 6.371-7.136 8.398-11.635 2.091-4.64 4.825-9.626 4.297-14.868-1.038-10.31-11.935 6.593-12.988 8.888-2.008 4.377-9.494 21.996-1.888 24.693 2.771.983 5.76-2.091 7.422-3.943 4.155-4.629 7.525-10.697 8.268-16.936.426-3.574-.206-8.622-3.841-10.536-4.756-2.504-10.041 6.674-11.654 9.696-3.304 6.193-5.414 12.898-5.957 19.91-.313 4.035-.84 10.356 3.418 12.734 3.38 1.887 7.743-3.08 9.57-5.236 4.608-5.436 7.517-11.606 9.961-18.229 1.824-4.942 2.69-10.796 1.27-15.966-1.23-4.478-5.97 2.109-6.77 3.361-5.003 7.822-7.188 17.645-8.627 26.697-.765 4.81-2.26 12.572 1.074 16.774 7.575 9.547 17.893-16.373 18.913-20.006 1.735-6.182 2.659-13.054 1.823-19.457-.805-6.163-4.707 2.16-5.47 4.17-2.53 6.666-3.378 14.244-3.905 21.298-.373 4.98-1.33 12.013.586 16.872 1.764 4.477 5.46 2.112 7.356-.711 4.097-6.102 5.189-13.54 5.86-20.685.567-6.043.54-12.464-.326-18.488-1.003-6.973-3.53 7.407-3.71 8.533-1.448 9.02-2.372 18.273-2.41 27.408-.02 4.802-1.653 18.021 3.776 21.073 3.046 1.712 5.741-2.511 7-4.687 4.071-7.041 4.078-16.664 3.515-24.499-.4-5.554-1.093-11.079-1.953-16.58-.378-2.417-.592-5.257-1.79-7.466-1.656-3.052-2.26 11.13-2.247 11.926.042 2.691 2.433 37.578 6.804 35.488 2.309-1.104 2.548-7.554 2.734-9.534.878-9.34-.638-19.132-2.311-28.313-.125-.682-1.904-7.654-1.921-7.596-1.466 5.013-.716 11.356-.716 16.484 0 5.904-.302 11.935 1.172 17.712.597 2.34 1.891 5.081 3.06 1.422 3.644-11.412.339-25.507-2.767-36.814-.821-2.99-.946-.826-.749.873.519 4.468 1.155 9.44 2.8 13.64.275.702 2.281 5.135 3.743 3.36 1.412-1.713-.102-6.63-.586-8.403-1.712-6.279-4.957-12.097-8.398-17.582-1.857-2.96-3.997-6.515-7.617-7.563-9.22-2.67-8.235 24.882-8.106 28.571.214 6.092.958 12.1 2.767 17.938.276.89 2.041 6.473 3.516 3.911 2.162-3.757-1.473-11-3.158-14.286-1.537-2.997-6.942-13.588-11.133-13.445-4.46.153-4.417 8.717-4.297 11.442.343 7.725 2.1 15.351 5.6 22.301 1.695 3.366 4.67 7.078 8.56 7.951 1.603.359 5.179-.094 4.623-2.521-.555-2.425-3.801-3.766-5.631-4.978-3.645-2.412-7.085-5.008-11.003-6.981-6.68-3.364-.26 7.884 1.009 10.31 2.053 3.926 4.84 8.89 9.245 10.601 1.862.724 2.375-.574.846-1.713-2.972-2.213-5.918-4.457-8.952-6.593-1.206-.849-5.54-5.414-7.226-5.042-.094.021 7.566 9.984 8.952 11.054 4.728 3.651-9.604-7.118-14.551-10.472-3.854-2.614-1.708-1.276.52.905 2.076 2.03 3.978 4.195 5.99 6.27 1.667 1.718 3.93.796 6.315 1.648 3.383 1.209 6.898 5.228 10.808 2.424 3.774-2.706 3.432-3.571 5.273 1.39 2.213 5.963 3.305 12.278 4.688 18.455.47 2.106 1.165-.433 1.497-1.293.883-2.289 1.97-4.899 2.018-7.369.087-4.462-3.564-5.764-6.413-2.036-.843 1.104-4.371 8.66-.032 6.69 2.175-.987 3.009-2.398 3.516-4.718 1.54-7.05 1.52-14.767.911-21.914-.16-1.886-.388-11.077-3.288-11.797-3.38-.839-5.03 12.495-5.24 14.448-.572 5.318-1.612 10.712-.587 16.031.923 4.782 3.166 3.145 4.558-.582 2.205-5.907 2.378-12.897 2.116-19.102-.183-4.307-.702-8.474-1.693-12.67-.32-1.356-.632-4.625-2.084-5.526-2.47-1.534-2.84 8.793-2.897 9.728-.18 2.942-1.084 11.723-.553 8.824 2.068-11.292-1.691-24.954-7.78-34.519-7.503-11.785-15.625 8.19-15.625 14.868 0 1.158.13 5.237 2.279 4.202 3.801-1.834 3.291-8.87 3.255-12.153-.037-3.33-.658-13.09-4.427-14.997-4.55-2.301-4.646 13.914-4.688 15.19" stroke="gold" stroke-width="7.024" stroke-linecap="round" stroke-linejoin="round"/><path d="M91.89 146.547c3.097-.6 6.325-1.395 9.408-1.778 2.748-.341 6.525-3.565 8.985-4.88 2.259-1.208 5.086-1.471 7.259-2.909.854-.566 3.784-4.543 3.646-2.069-.086 1.526-2.289 4.142-2.963 5.592-1.204 2.59-3.937 5.117-6.152 6.917-2.401 1.95-4.768 3.562-7.552 4.945-2.649 1.315-6.01 2.066-8.268 4.072-1.6 1.422 1.091 1.475 2.409 1.713 2.495.451 5.034-.027 7.063-1.422 2.414-1.659 5.773-3.311 8.561-4.234 2.488-.823 4.091-2.386 6.316-3.491.87-.432 4.024-1.115 2.05.453-.945.751-.943 2.778-1.464 3.814-.659 1.307-2.176 2.556-3.288 3.49-2.432 2.043-5.075 4.4-7.845 5.947-1.183.661 3.929 1.179 4.101 1.293m-25.781-31.997c0-5.968.586-11.764.586-17.712 0-7.353-2.289-14.607-4.232-21.655-2.016-7.314-4.554-14.605-9.245-20.685-2.785-3.611-5.702-9.761-11.002-9.761-3.14 0-3.646 2.829-3.646 5.236 0 4.56 2.553 8.519 6.315 11.053 4.15 2.796 9.463 3.45 14.063 5.237 3.826 1.486 7.718 3.266 10.546-.582 5.572-7.58 6.93-16.61 6.576-25.727-.035-.899-1.418-3.958-2.474-2.91-2.049 2.035-3.323 5.807-3.385 8.663-.28 12.764 1.441 26.633 6.575 38.396 1.15 2.635 2.315 5.27 3.711 7.79 1.081 1.95 1.435 4.257 2.735 6.044.738 1.014 6.266 7.434 3.971 4.395" stroke="#4D4D4D" stroke-width="7.024" stroke-linecap="round" stroke-linejoin="round"/><path d="M39.742 140.729c3.341-3.317 6.132-6.937 8.92-10.73 1.796-2.444 1.155-1.731.455-3.814M12.79 93.024c3.16-1.09 7.35-2.62 10.09-4.525.404-.28-.601 2.426-1.302 1.034M4 38.337c4.032 2.696 7.984 5.236 13.02 5.236 1.12 0 4.786-.128 3.972-1.745M48.531 6.922c.852 3.945 2.357 6.9 4.655 10.18.394.562 3.22 3.585 1.79 1.455m46.29-5.236c2.568-1.717 5.463-3.566 7.617-5.818.621-.65 2.93-3.725 2.93-3.49m24.609 37.815C142.293 39.924 154 36.01 154 36.01m-16.992 53.523c3.503 3.376 6.842 2.902 11.133 4.525 1.894.717 2.608.066 0-.452" stroke="gold" stroke-width="7.024" stroke-linecap="round" stroke-linejoin="round"/></svg>