<svg width="69" height="22" fill="none" xmlns="http://www.w3.org/2000/svg"><path d="M15.61 7.926c-1.747 1.585-3.44 2.966-5.065 4.672-2.383 2.492-4.604 5.132-6.893 7.705-.596.664-1.07 1.639-2.207 1.124-.745-.338-.745-1.191-.027-2.6.42-.812.894-1.598 1.449-2.329A48.94 48.94 0 0113.998 5.773c.731-.5 1.53-.961 2.37-1.246 1.598-.528 2.83.393 2.681 2.072-.095 1.084-.474 2.167-.799 3.223-.623 2.004-1.34 3.968-1.936 5.986-.163.555-.366 1.516-.027 1.936.582.623 2.315-1.165 3.087-1.99 2.37-2.506 4.658-5.092 7.001-7.625 2.343-2.545 4.93-4.834 7.949-6.554.88-.5 1.828-.934 2.803-1.191 1.571-.42 2.817.623 2.709 2.261a6.614 6.614 0 01-.623 2.316c-.867 1.8-1.856 3.534-2.763 5.308-.948 1.855-1.936 3.71-2.289 6.23.664-.597 1.097-.935 1.463-1.341 2.383-2.573 4.712-5.187 7.123-7.733 2.194-2.315 4.536-4.482 7.367-5.999C51.184.858 52.389.411 53.58.248c1.652-.216 2.79 1.043 2.465 2.681-.244 1.206-.759 2.37-1.273 3.48-.989 2.1-2.072 4.144-3.088 6.216-.23.46-.934 1.544-.297 1.652.677-.717 1.354-1.449 2.044-2.153 1.828-1.91 3.616-3.846 5.498-5.7 1.693-1.68 3.575-3.129 5.986-3.67 2.03-.461 3.466.798 3.141 2.857a9.971 9.971 0 01-.948 2.898c-2.004 3.94-4.076 7.84-6.134 11.754-.23.42-.487.866-.853 1.164-.339.271-.907.583-1.232.46a1.361 1.361 0 01-.854-1.408c.068-.785.298-1.367.61-2.071 1.435-3.25 2.952-6.46 4.441-9.683.407-.866.84-1.72 1.26-2.586.149-.257.108-.298.027-.393-.393-.203-1.476.623-1.923 1.056a563.373 563.373 0 00-7.583 7.462c-.989.988-1.896 2.072-2.885 3.06-.812.813-1.814 1.273-2.938.731-1.124-.541-1.436-1.679-1.246-2.762.27-1.584.61-3.196 1.26-4.645.974-2.207 2.247-4.293 3.385-6.432.19-.366.352-.758.663-1.463-.704.298-1.137.42-1.53.637-2.573 1.435-4.753 3.372-6.717 5.525-2.356 2.586-4.563 5.308-6.892 7.935-.921 1.043-1.869 2.113-2.966 2.952-2.126 1.652-4.252.772-4.523-1.895-.122-1.26.068-2.587.366-3.82.745-3.127 2.437-5.85 4.035-8.598.339-.582.677-1.165.894-1.828-2.614.961-4.726 2.613-6.636 4.482-2.965 2.898-5.768 5.972-8.666 8.924-.745.758-1.571 1.49-2.478 2.045-1.544.934-3.223.216-3.602-1.544-.285-1.287-.298-2.708-.095-4.008.284-1.91 1.53-5.417 1.476-5.634 0-.203-.163 0-.163 0z" fill="#81ADC8"/></svg>