<svg width="63" height="68" fill="none" xmlns="http://www.w3.org/2000/svg"><path d="M62.158 19.741c.42.46.474 1.138.15 1.68-.299.5-.556.934-.854 1.34-3.087 4.279-4.78 6.513-7.827 10.82-.772 1.083-2.64 4.4-3.358 5.538-.014.014-.014.027-.027.04-.65.976-2.248.908-2.763-.162 0 0 0-.013-.013-.013-.759-1.666-1.368-3.386-2.072-5.078-1.937-4.672-4.631-8.721-9.114-11.375-1.625-.962-1.652-1.666-.392-3.06.474-.515.948-1.044 1.462-1.504 4.97-4.428 8.396-9.899 10.955-15.993.163-.379.488-.677.84-.975a1.116 1.116 0 011.53.109c.339.352.65.731.84 1.15.42.976.528 2.073.785 3.115 1.381 5.674 4.455 10.197 9.127 13.677.257.19.488.434.731.691zM49.714 6.145C48.102 8.826 46.748 11.59 44.906 14c-1.882 2.452-4.238 4.537-6.391 6.798 5.47 3.277 8.64 8.464 10.549 14.829 2.803-5.796 6.676-10.4 10.928-14.707-6.717-5.119-8.315-7.434-10.278-14.774z" fill="#000"/><path d="M11.093 66.473C9.86 62.98 8.79 59.418 7.436 55.978c-1.327-3.33-3.304-6.296-6.147-8.585-1.043-.84-1.016-1.598-.163-2.546C5.92 39.634 9.603 33.73 12.244 27.162c.284-.704 1.043-1.828 1.57-1.828 1.436-.339 1.95 2.464 2.005 2.722 1.205 6.608 5.295 11.415 9.885 15.911 1.49 1.463 1.612 1.91.15 3.318-5.512 5.281-9.168 11.781-12.31 18.62-.989 2.383-2.302.988-2.451.568zM2.94 45.782c2.925 1.855 4.861 4.333 6.27 7.136 1.367 2.75 2.37 5.66 3.507 8.45 2.627-5.877 6.175-11.307 11.564-15.437-5.213-4.103-9.33-8.789-10.59-15.506-2.26 6.04-5.85 11.064-10.751 15.357z" fill="#81ADC8"/><path d="M48.102 51.903c-2.993 4.022-4.82 8.612-6.5 13.284-.108.298-.46 1.99-1.747 1.977-.365 0-.975-.582-1.205-1.043-1.016-2.072-1.652-4.387-2.939-6.256-1.516-2.22-3.602-4.049-5.362-6.094-.257-.297-.352-.975-.19-1.34.312-.677.867-1.219 1.3-1.842 2.208-3.25 4.374-6.527 6.65-9.723.473-.663 1.408-1.462 1.963-1.462 1.381-.014 1.652 1.07 1.896 1.841 1.11 3.548 3.02 6.514 5.795 8.965.989.92.46 1.53.339 1.693zm-15.207.934c3.223 2.289 5.416 5.593 6.743 9.29 1.964-3.602 3.968-7.272 6.026-11.064-2.762-1.91-4.685-5.47-5.565-8.098l-7.204 9.872z" fill="#CD4631"/></svg>