<svg width="57" height="36" fill="none" xmlns="http://www.w3.org/2000/svg"><path d="M3.042 23.674c-.46-.569-1.639.989-2.492.244-.853-.732.325-1.747.812-2.383a16.468 16.468 0 012.939-2.966c.42-.339 1.395-.84 1.882-.217.312.393.393.745-.108 1.693-.271.5-.406.772-1.124 1.638 0 .271.406.57.718.84 6.513 5.674 13.866 9.52 22.655 9.94 8.788.433 16.345-2.289 22.086-9.222.515-.61 1.219-1.178 1.314-1.883.068-.528-.163-.799-.88-1.8-.23-.312-.339-1.07.08-1.544.691-.813 1.436-.393 1.694-.15 1.746 1.707 3.1 3.711 4.09 5.512.189.596-.123 1.083-.434 1.381-.258.244-.935.217-1.34.068-.475-.176-.867-.596-1.49-1.056-6.284 8.233-14.774 12.16-25.066 11.781-10.13-.338-18.999-4.658-25.337-11.876z" fill="#000"/><path d="M39.848 8.792c-.04-3.562 2.478-6.433 5.62-6.42 2.735.014 5.172 2.804 5.2 5.96.013 2.992-2.641 5.768-5.58 5.809-2.965.027-5.213-2.262-5.24-5.35zm2.613-.38c.027 1.707 1.192 2.939 2.776 2.912 1.382-.027 2.709-1.381 2.641-2.736-.068-1.665-.948-3.385-3.087-3.141-1.22.135-2.357.988-2.33 2.965z" fill="#CD4631"/><path d="M15.73 6.056c-.027 3.169-2.613 5.85-5.674 5.864-2.911.013-5.227-2.56-5.091-5.877.148-4.076 2.41-5.336 5.728-5.634 2.6-.23 5.05 2.722 5.037 5.647zm-8.22-.284c-.013 2.004 1.07 3.507 2.52 3.52 1.61.014 3.114-1.557 3.114-3.276 0-1.585-1.436-3.101-2.898-3.06-1.855.053-2.736.96-2.736 2.816z" fill="#81ADC8"/></svg>