<svg width="67" height="66" fill="none" xmlns="http://www.w3.org/2000/svg"><path d="M5.726 20.948c3.643-4.28 7.638-8.369 12.052-11.849 3.074-2.424 4.13-2.546 5.823-3.006.46-.122.867-.407 1.26-.69C41.34-6.23 62.343 2.016 66.406 22.545c2.695 13.623-4.252 27.15-16.196 32.676-.19.095-.474.122-.568.27-2.37 3.711-7.19 5.147-10.13 5.878-.595.217-1.056.84-1.597 1.246-.42.311-.84.65-1.314.866C21.07 70.686 4.371 61.045.716 45.092.2 42.846-2.06 29.277 5.726 20.949zm32.351 33.407c5.539-.027 9.154-.934 12.39-2.708 15.574-8.545 17.903-31.755 4.199-43.09C46.812 2.071 36.764.974 27.934 7.19c-10.494 7.38-14.3 22.506-8.422 33.935 4.224 8.22 10.928 12.756 18.565 13.23zm5.295 3.508c.677-.244.772-.42.663-.502 0 0-.284 0-.758.014-12.187.92-21.355-3.927-26.785-14.855-5.309-10.671-4.022-21.152 2.248-31.187a5.174 5.174 0 00-1.273.88C9.017 19.866 6.525 32.825 11.4 43.902c4.496 10.224 13.934 16.29 24.551 15.532 2.492-.176 4.943-1.029 7.42-1.57zM7.582 22.734c.013-.392-.353.095-.407.163-.19.257-.38.528-.542.799-2.234 3.765-3.629 7.84-3.818 12.214-.447 9.967 3.047 18.228 11.483 23.86 5.606 3.752 11.835 4.524 18.349 2.493-9.52-.962-16.94-5.377-21.951-13.529-5.01-8.125-5.81-16.845-3.115-26z" fill="#000"/><path d="M48.369 31.416c1.869.067 2.478 1.042 1.869 2.803-1.517 4.333-5.783 6.446-10.13 4.929-2.572-.907-4.59-2.56-5.985-4.916-1.07-1.814-.596-2.857 1.503-2.992 2.194-.15 10.698.094 12.743.176zm-.42 2.112H36.886c3.737 4.347 9.262 4.428 11.063 0z" fill="#000"/><path d="M33.134 23.738c.014 2.112-2.017 4.035-4.238 4.022-1.937-.014-3.29-1.76-3.304-3.616-.027-1.855 1.868-3.683 3.954-3.737 2.004-.068 3.588 1.394 3.588 3.33zm-4.062-1.34c-1.002.162-1.314 1.11-1.232 1.827.108 1.043.893 1.3 1.38 1.314.461.013 1.369-.447 1.558-1.34.244-.908-.27-2.14-1.706-1.802z" fill="#CD4631"/><path d="M59.012 24.306c-.027 2.045-1.476 3.548-3.412 3.535-2.086-.014-3.589-1.707-3.52-3.968.053-1.963 1.516-3.48 3.33-3.44 1.883.055 3.63 1.923 3.602 3.873zm-1.868-.054c0-1.043-.555-1.747-1.422-1.747a1.45 1.45 0 00-1.422 1.517c0 1.936 1.422 1.828 1.422 1.828.758-.027 1.422-.338 1.422-1.598z" fill="#81ADC8"/></svg>