<svg width="49" height="64" fill="none" xmlns="http://www.w3.org/2000/svg"><path d="M39.18 15.817c-.34 3.345-.583 6.135-.922 8.91-.19 1.517-.812 2.831-2.518 3.197-1.422.297-2.898-.488-3.751-2.235-.826-1.679-1.422-3.48-2.045-5.254-1.801-5.092-4.577-9.614-8.017-13.745-1.07-1.286-2.126-2.573-3.358-4.062-.271.907-.488 1.638-.704 2.37-2.302 7.949-3.088 16.047-2.736 24.293.109 2.668-.203 5.39-.582 8.044-.244 1.706-.88 3.44-2.939 3.819-1.476.27-2.938-.948-3.832-3.169-.596-1.49-.988-3.074-1.53-4.59-.298-.854-.731-1.653-1.124-2.546-4.97 6.04-1.178 25.959 5.444 28.87.027-5.335 2.478-9.75 5.376-13.92 4.103-5.904 6.337-12.432 7.082-19.527.054-.529.162-1.07.257-1.585.46-2.41 1.45-2.803 3.25-1.015 1.165 1.15 2.194 2.572 2.871 4.049 3.358 7.23 4.753 14.733 2.478 22.614-.257.867-.84 2.085-.406 2.708.758.948 1.95-.677 2.207-1.34.677-1.747 1.097-3.575 1.639-5.376.338-1.124.541-2.356 1.15-3.331.475-.759 1.504-1.693 2.208-1.626.731.068 1.747 1.11 1.99 1.923 1.788 6.053.949 11.592-4.63 16.291-2.871 2.424-6.406 3.21-10.021 3.683-4.076.528-8.098.691-12.188-.243-1.95-.447-3.981-.745-5.16-1.178-1.177-.434-2.18-1.314-2.653-2.045C-.01 50.498-1 40.693 3.24 30.415c.88-2.126 2.573-2.573 4.062-.812 1.097 1.3 1.72 3.047 2.41 4.672.475 1.137.732 2.37 1.057 3.561.406 1.49 1.002 1.72 1.408 1.463.501-.15.8-1.95.745-3.751-.095-2.966-.04-5.945-.352-8.884-.908-8.612 1.191-16.683 4.252-24.591.758-1.978 1.625-2.221 3.25-.84 6.662 5.647 11.47 12.526 13.65 21.084.338 1.3.447 2.763 2.099 3.792.162-1.26.298-2.302.447-3.331.379-2.546.623-5.119 1.191-7.61.352-1.504 1.395-1.815 2.492-.732 1.435 1.422 2.844 2.993 3.778 4.767 3.48 6.635 4.672 13.84 4.645 21.26-.027 5.837-1.11 11.497-3.792 16.71-.907 1.775-2.437 3.237-3.737 4.794-.582.705-1.91.474-1.3-1.096a2.16 2.16 0 01.216-.434C44.8 53.68 45.3 45.772 45.368 37.81c.054-6.351-.867-12.58-3.833-18.322-.622-1.178-1.421-2.234-2.356-3.67zm-.732 27.774c-.799 2.654-1.422 4.848-2.14 7.029-.568 1.72-1.435 3.277-3.141 4.13-1.977 1.002-3.9-.109-4.009-2.33-.04-.907 0-1.841.176-2.721 1.382-7.07.732-13.921-2.03-20.57-.475-1.138-1.165-2.18-1.856-3.426-.244.406-.42 1.882-.447 2.518-.176 4.821-.718 9.588-3.25 13.84-1.517 2.532-3.223 4.956-4.875 7.421-1.828 2.749-3.453 5.593-4.049 8.897-.406 2.261-.23 2.37 1.937 2.925 4.59 1.164 9.086.42 13.568-.474 5.105-1.016 8.288-4.374 10.184-9.005 1.042-2.533.744-5.16-.068-8.234z" fill="#CD4631"/></svg>