<svg width="67" height="66" fill="none" xmlns="http://www.w3.org/2000/svg"><path d="M23.615 23.196c-1.355-.975-2.343-1.693-3.332-2.397-3.98-2.857-7.99-5.7-11.943-8.599-.948-.69-1.842-1.543-2.506-2.491-.379-.57-.5-1.585-.243-2.18.149-.353 1.367-.542 1.95-.34 1.422.475 2.803 1.125 4.103 1.87 4.049 2.342 8.057 4.766 12.241 7.258.38-2.492.705-4.97 1.165-7.42.352-1.897.84-3.793 1.368-5.648.338-1.205 1.056-2.248 2.505-2.045 1.503.204 1.99 1.395 1.964 2.736-.055 3.995-.19 7.976-.271 11.97-.027.949 0 1.896 0 2.844.149.136 1.422-1.002 2.017-1.584a1991.04 1991.04 0 0115.33-14.869A8.327 8.327 0 0150.508.65c.488-.203 1.409-.054 1.734.298.325.352.392 1.273.162 1.747-.433.907-1.083 1.733-1.774 2.478-4.536 4.984-9.1 9.94-13.65 14.91-.5.541-1.002 1.11-1.747 1.936 3.413-.244 6.487-.515 9.56-.677 6.19-.312 12.391-.569 18.58-.84.38-.013.785-.013 1.11.054 2.126.447 1.937 2.573.339 2.844-1.95.339-3.914.758-5.89.962-7.083.704-14.165 1.327-21.248 1.99-.149.014-.284.068-.73.19 1.95 1.53 3.75 2.938 5.551 4.333 3.4 2.654 6.839 5.268 10.184 7.976a9.784 9.784 0 012.248 2.695c.609 1.056-.028 1.964-1.192 1.68-1.422-.366-2.885-.949-4.09-1.775-5.877-4.008-11.673-8.138-17.496-12.228-.65-.46-1.3-.92-2.247-1.611-.204 3.074-.366 5.836-.583 8.599-.65 8.22-1.3 16.44-1.977 24.659a13.008 13.008 0 01-.528 2.695c-.366 1.191-1.178 1.977-2.492 1.882-1.232-.095-1.95-.92-2.166-2.085a17.645 17.645 0 01-.298-3.372c.081-7.34.203-14.666.311-22.005.014-.542 0-1.07 0-2.005-.623.596-1.056.989-1.476 1.409-4.685 4.685-9.37 9.384-14.07 14.07-.528.528-1.124 1.056-1.8 1.354-.461.203-1.274.19-1.626-.095-.352-.284-.433-1.083-.433-1.557.014-1.49.812-2.153 1.517-3.007A1097.657 1097.657 0 0116.884 33.19c1.53-1.788 3.196-3.453 5.16-5.539-3.67.42-6.852.826-10.035 1.124-3.06.285-6.12.46-9.194.677-.325.027-.664-.027-.962-.067-1.557-.19-.677-1.842-.23-1.95 3.074-.759 6.175-1.49 9.29-2.059 3.696-.636 11.862-1.896 12.702-2.18z" fill="#000"/></svg>