<svg width="74" height="74" fill="none" xmlns="http://www.w3.org/2000/svg"><g clip-path="url(#clip0_301_54)"><path d="M32 68a32 32 0 1130.434-41.889l-3.044.99A28.8 28.8 0 1032 64.8V68z" fill="#000"/><path d="M40.404 33.2c.868 0 1.62.145 2.254.434.644.29 1.139.7 1.484 1.232s.518 1.162.518 1.89c0 .719-.173 1.349-.518 1.89-.345.532-.84.943-1.484 1.232-.635.28-1.386.42-2.254.42H38.43V43h-2.268v-9.8h4.242zm-.126 5.25c.681 0 1.2-.145 1.554-.434.355-.299.532-.719.532-1.26 0-.55-.177-.97-.532-1.26-.355-.299-.873-.448-1.554-.448H38.43v3.402h1.848zm10.324 4.718c-1.017 0-1.937-.22-2.758-.658a4.964 4.964 0 01-1.918-1.806c-.457-.775-.686-1.643-.686-2.604 0-.961.229-1.825.686-2.59a4.93 4.93 0 011.918-1.82c.821-.439 1.74-.658 2.758-.658 1.017 0 1.932.22 2.744.658a4.93 4.93 0 011.918 1.82c.467.765.7 1.629.7 2.59 0 .961-.233 1.83-.7 2.604a4.964 4.964 0 01-1.918 1.806c-.812.439-1.727.658-2.744.658zm0-1.932c.579 0 1.101-.13 1.568-.392.467-.27.83-.644 1.092-1.12.27-.476.406-1.017.406-1.624 0-.607-.135-1.148-.406-1.624a2.767 2.767 0 00-1.092-1.106 3.067 3.067 0 00-1.568-.406c-.579 0-1.101.135-1.568.406a2.86 2.86 0 00-1.106 1.106c-.261.476-.392 1.017-.392 1.624 0 .607.13 1.148.392 1.624.27.476.64.85 1.106 1.12.467.261.99.392 1.568.392zm6.506-8.036h4.452c1.064 0 2.002.205 2.814.616.822.401 1.456.97 1.904 1.708.458.737.686 1.596.686 2.576s-.228 1.839-.686 2.576c-.448.737-1.082 1.311-1.904 1.722-.812.401-1.75.602-2.814.602h-4.452v-9.8zm4.34 7.938c.98 0 1.76-.27 2.338-.812.588-.55.882-1.293.882-2.226s-.294-1.67-.882-2.212c-.578-.55-1.358-.826-2.338-.826h-2.072v6.076h2.072z" fill="#CD4631"/><path d="M40.908 56.168c-1.017 0-1.937-.22-2.758-.658a4.964 4.964 0 01-1.918-1.806c-.457-.775-.686-1.643-.686-2.604 0-.961.229-1.825.686-2.59a4.93 4.93 0 011.918-1.82c.821-.439 1.74-.658 2.758-.658 1.017 0 1.932.22 2.744.658a4.93 4.93 0 011.918 1.82c.467.765.7 1.629.7 2.59 0 .961-.233 1.83-.7 2.604a4.964 4.964 0 01-1.918 1.806c-.812.439-1.727.658-2.744.658zm0-1.932c.579 0 1.101-.13 1.568-.392.467-.27.83-.644 1.092-1.12.27-.476.406-1.017.406-1.624 0-.607-.135-1.148-.406-1.624a2.767 2.767 0 00-1.092-1.106 3.067 3.067 0 00-1.568-.406c-.579 0-1.101.135-1.568.406a2.86 2.86 0 00-1.106 1.106c-.261.476-.392 1.017-.392 1.624 0 .607.13 1.148.392 1.624.27.476.64.85 1.106 1.12.467.261.99.392 1.568.392zm11.07-6.272c-.784 0-1.376.173-1.778.518-.4.336-.602.845-.602 1.526v.602h4.032v1.82h-4.032V56h-2.267v-5.978c0-1.26.391-2.24 1.175-2.94.794-.7 1.9-1.05 3.319-1.05.56 0 1.087.06 1.581.182.495.112.925.28 1.288.504l-.7 1.792c-.56-.364-1.231-.546-2.016-.546zM40.852 69.168c-.999 0-1.904-.215-2.716-.644a4.99 4.99 0 01-1.904-1.806c-.457-.775-.686-1.647-.686-2.618 0-.97.229-1.839.686-2.604a4.855 4.855 0 011.904-1.806c.812-.439 1.722-.658 2.73-.658.85 0 1.615.15 2.296.448a4.6 4.6 0 011.736 1.288l-1.456 1.344c-.663-.765-1.484-1.148-2.464-1.148-.607 0-1.148.135-1.624.406a2.83 2.83 0 00-1.12 1.106c-.261.476-.392 1.017-.392 1.624 0 .607.13 1.148.392 1.624.27.476.644.85 1.12 1.12.476.261 1.017.392 1.624.392.98 0 1.801-.387 2.464-1.162l1.456 1.344a4.54 4.54 0 01-1.736 1.302c-.69.299-1.46.448-2.31.448zm9.428-10.136c.905 0 1.694.177 2.366.532a3.737 3.737 0 011.568 1.568c.373.69.56 1.526.56 2.506V69h-2.268v-2.352h-4.48V69h-2.24v-5.362c0-.98.186-1.815.56-2.506a3.736 3.736 0 011.568-1.568c.672-.355 1.46-.532 2.366-.532zm2.226 5.796v-1.4c0-.812-.201-1.423-.602-1.834-.402-.42-.948-.63-1.638-.63-.7 0-1.251.21-1.652.63-.392.41-.588 1.022-.588 1.834v1.4h4.48zm7.166 4.34a8.264 8.264 0 01-2.254-.308c-.718-.215-1.297-.49-1.736-.826l.77-1.708c.42.308.92.555 1.498.742.579.187 1.157.28 1.736.28.644 0 1.12-.093 1.428-.28.308-.196.462-.453.462-.77a.703.703 0 00-.28-.574 1.919 1.919 0 00-.7-.378c-.28-.093-.662-.196-1.148-.308a15.964 15.964 0 01-1.834-.532 3.032 3.032 0 01-1.232-.854c-.336-.392-.504-.915-.504-1.568 0-.57.154-1.083.462-1.54.308-.467.77-.835 1.386-1.106.626-.27 1.386-.406 2.282-.406a7.55 7.55 0 011.834.224c.598.15 1.12.364 1.568.644l-.7 1.722c-.905-.513-1.81-.77-2.716-.77-.635 0-1.106.103-1.414.308-.298.205-.448.476-.448.812 0 .336.173.588.518.756.355.159.892.317 1.61.476a15.97 15.97 0 011.834.532c.476.177.882.457 1.218.84.346.383.518.9.518 1.554a2.68 2.68 0 01-.476 1.54c-.308.457-.774.821-1.4 1.092-.625.27-1.386.406-2.282.406zm12.192-7.224a7.52 7.52 0 00-2.702-.938V69h-2.268v-7.994a7.65 7.65 0 00-2.716.938l-.77-1.694a8.372 8.372 0 012.184-.91 9.521 9.521 0 012.422-.308c.84 0 1.652.103 2.436.308a8.114 8.114 0 012.184.91l-.77 1.694z" fill="#000"/></g><defs><clipPath id="clip0_301_54"><path fill="#fff" d="M0 0h74v74H0z"/></clipPath></defs></svg>