<svg width="18" height="18" fill="none" xmlns="http://www.w3.org/2000/svg"><mask id="a" maskUnits="userSpaceOnUse" x="0" y="0" width="18" height="18" fill="#000"><path fill="#fff" d="M0 0h18v18H0z"/><path d="M9 1a8 8 0 100 16A8 8 0 009 1zm3.671 11.537a.5.5 0 01-.69.166c-1.876-1.15-4.239-1.404-7.022-.772a.492.492 0 01-.594-.37.498.498 0 01.37-.6c3.046-.697 5.663-.397 7.77.893a.498.498 0 01.166.683zm.977-2.177a.638.638 0 01-.855.204 10.49 10.49 0 00-7.969-.932.638.638 0 11-.364-1.194 11.658 11.658 0 018.984 1.066.638.638 0 01.204.856zm.083-2.267c-2.554-1.532-6.825-1.672-9.29-.925a.747.747 0 11-.434-1.43c2.829-.856 7.521-.69 10.49 1.066a.747.747 0 01-.766 1.277v.012z"/></mask><path d="M9 1a8 8 0 100 16A8 8 0 009 1zm3.671 11.537a.5.5 0 01-.69.166c-1.876-1.15-4.239-1.404-7.022-.772a.492.492 0 01-.594-.37.498.498 0 01.37-.6c3.046-.697 5.663-.397 7.77.893a.498.498 0 01.166.683zm.977-2.177a.638.638 0 01-.855.204 10.49 10.49 0 00-7.969-.932.638.638 0 11-.364-1.194 11.658 11.658 0 018.984 1.066.638.638 0 01.204.856zm.083-2.267c-2.554-1.532-6.825-1.672-9.29-.925a.747.747 0 11-.434-1.43c2.829-.856 7.521-.69 10.49 1.066a.747.747 0 01-.766 1.277v.012z" fill="#1ED760"/><path d="M4.555 2.348L4 1.517l.555.831zM1.61 5.938l-.924-.382.924.383zm-.455 4.623l.98-.195-.98.195zm2.19 4.096l-.708.707.707-.707zm8.718 1.734l-.383-.924.383.924zm2.595-13.048l-.707.707.707-.707zm-1.986 9.194l-.855-.519-.002.003.857.516zm-.132.145l.591.806-.591-.806zm-.178.082l-.234-.972.234.972zm-.38-.06l.529-.85-.006-.004-.522.853zM4.96 11.93l-.222-.976-.01.003.232.973zm-.194.007l.162-.987-.162.987zm-.18-.069l-.53.849.53-.848zm-.22-.309l.975-.22-.003-.012-.972.232zm-.008-.194l-.987-.16v.001l.987.159zm.068-.183l-.85-.525.85.525zm.133-.142l-.585-.811.585.81zm.177-.08l-.223-.976-.006.002.229.973zm7.77.893l-.522.853.522-.853zm.224.307l-.971.236.971-.236zm.92-1.801l.838.545.013-.021.013-.023-.865-.501zm-.856.204l.501-.865-.007-.004-.007-.004-.487.873zm-7.969-.932l-.272-.962-.113.032-.102.057.487.873zm-.27.08l.062.998-.062-.998zm-.511-.206l.737-.676-.737.676zm-.14-.245l-.957.291.957-.291zm-.02-.282l-.99-.15.99.15zm.308-.456l-.504-.863.504.863zm.27-.085l.082.997.099-.008.095-.028-.277-.96zm4.599-.374l-.118.993.118-.993zm4.384 1.44l.545-.838-.025-.016-.026-.015-.494.87zm.273.387l.972-.232-.972.232zm.014-1.798l-.514.858 1.514.909V8.093h-1zm-9.29-.925l-.29-.957.29.957zm-.569-.056l.471-.882-.47.882zM3.51 6.67l.957-.29-.957.29zm.056-.57l.882.472-.882-.472zm.442-.363l-.29-.957.29.957zm10.49 1.067l.582-.813-.035-.026-.038-.022-.509.86zm.297.455l.98-.203-.98.203zm-.091.536l.857.515-.857-.515zm-.43.333l-.282-.96.282.96zm-.542-.047l.444-.897-1.444-.714v1.61h1zM9 0a9 9 0 00-5 1.517L5.11 3.18A7 7 0 019 2V0zM4 1.517A9 9 0 00.685 5.556l1.848.765A7 7 0 015.11 3.18L4 1.517zM.685 5.556a9 9 0 00-.512 5.2l1.962-.39a7 7 0 01.398-4.045L.685 5.556zm-.512 5.2a9 9 0 002.463 4.608L4.05 13.95a7 7 0 01-1.915-3.584l-1.962.39zm2.463 4.608a9 9 0 004.608 2.463l.39-1.962A7 7 0 014.05 13.95l-1.414 1.414zm4.608 2.463a9 9 0 005.2-.512l-.765-1.848a7 7 0 01-4.045.399l-.39 1.961zm5.2-.512A9 9 0 0016.484 14l-1.664-1.11a7.001 7.001 0 01-3.141 2.578l.765 1.848zM16.484 14A9 9 0 0018 9h-2a7 7 0 01-1.18 3.889L16.483 14zM18 9a9 9 0 00-2.636-6.364L13.95 4.05A7 7 0 0116 9h2zm-2.636-6.364A9 9 0 009 0v2a7 7 0 014.95 2.05l1.414-1.414zm-3.55 9.385a.502.502 0 01.134-.146l1.182 1.613c.16-.117.295-.265.398-.435l-1.714-1.032zm.134-.146a.502.502 0 01.18-.083l.467 1.945c.193-.047.375-.131.535-.248l-1.182-1.614zm.179-.083a.502.502 0 01.198-.007l-.32 1.974c.197.032.397.024.59-.023l-.468-1.944zm.198-.007a.5.5 0 01.185.069l-1.056 1.698c.168.105.356.175.552.207l.319-1.974zm.179.065c-2.162-1.323-4.81-1.566-7.767-.895l.443 1.95c2.61-.592 4.687-.324 6.28.651l1.044-1.706zm-7.778-.892a.51.51 0 01.2-.007l-.322 1.973c.195.032.395.025.587-.02l-.465-1.946zm.2-.007c.067.01.13.034.187.07l-1.058 1.697c.168.105.354.175.55.207l.321-1.974zm.187.07a.507.507 0 01.146.137l-1.631 1.158c.114.16.26.297.427.402l1.058-1.697zm.146.137c.04.055.067.118.081.183l-1.95.439c.042.192.123.374.238.536l1.63-1.158zm.078.17a.503.503 0 01.008.196l-1.975-.317c-.031.194-.024.393.022.586l1.945-.465zm.008.197a.501.501 0 01-.068.183l-1.703-1.05a1.498 1.498 0 00-.204.549l1.975.318zm-.069.184a.5.5 0 01-.133.143l-1.17-1.622c-.16.115-.295.26-.399.428l1.702 1.05zm-.133.143a.5.5 0 01-.179.081l-.458-1.946a1.497 1.497 0 00-.533.243l1.17 1.622zm-.185.083c2.862-.654 5.196-.348 7.025.772L13.027 11c-2.385-1.46-5.286-1.754-8.515-1.016l.446 1.95zm7.025.772a.502.502 0 01-.225-.31l1.943-.472a1.498 1.498 0 00-.674-.924l-1.043 1.706zm-.225-.31a.502.502 0 01.058-.379l1.71 1.038c.206-.34.269-.746.175-1.131l-1.943.473zm1.052-2.582a.362.362 0 01.219-.155l.464 1.946a1.64 1.64 0 00.993-.701l-1.676-1.09zm.219-.155a.362.362 0 01.265.04l-1.003 1.73c.363.21.794.273 1.202.176L13.03 9.66zm.25.03a11.49 11.49 0 00-8.727-1.02l.545 1.924a9.49 9.49 0 017.208.844l.975-1.747zm-8.941-.93a.362.362 0 01.154-.045l.125 1.996c.244-.016.482-.085.696-.205L4.337 8.76zm.154-.045a.361.361 0 01.158.025l-.75 1.854c.227.091.471.131.715.116L4.49 8.714zm.158.025c.05.02.095.051.131.091l-1.475 1.351c.166.18.37.322.596.413L4.65 8.74zm.131.091c.037.04.064.087.08.139l-1.914.583c.072.234.194.449.36.63L4.78 8.83zm.08.139a.36.36 0 01.011.16l-1.978-.3c-.036.242-.018.49.053.723L4.86 8.97zm.011.16a.362.362 0 01-.058.148L3.157 8.155a1.639 1.639 0 00-.264.675l1.978.298zm-.058.148a.361.361 0 01-.117.11L3.686 7.66c-.21.123-.391.292-.529.495l1.656 1.122zm-.117.11a.362.362 0 01-.153.048l-.165-1.993c-.245.02-.48.095-.691.218l1.009 1.727zm.041.012a10.658 10.658 0 014.205-.342l.236-1.986a12.658 12.658 0 00-4.994.406L4.737 9.4zm4.205-.342c1.41.168 2.773.615 4.008 1.317l.988-1.74a12.658 12.658 0 00-4.76-1.563l-.236 1.986zm3.957 1.286a.362.362 0 01-.155-.22l1.945-.464a1.639 1.639 0 00-.7-.993l-1.09 1.677zm-.155-.22a.361.361 0 01.039-.265l1.73 1.003c.21-.363.274-.793.176-1.202l-1.945.465zm1.502-2.887C12.79 6.363 10.916 5.92 9.132 5.78c-1.788-.14-3.602.014-4.98.432l.58 1.914c1.087-.33 2.641-.478 4.243-.352 1.607.126 3.145.52 4.242 1.178l1.03-1.715zM4.15 6.21a.253.253 0 01.192.019L3.4 7.993c.409.218.887.265 1.331.13L4.15 6.21zm.192.019c.06.031.104.085.123.15l-1.914.58c.135.443.44.815.849 1.034l.942-1.764zm.123.15a.253.253 0 01-.019.192l-1.764-.943a1.747 1.747 0 00-.13 1.331l1.913-.58zm-.019.191a.253.253 0 01-.15.123l-.58-1.913c-.444.134-.816.44-1.034.848l1.764.942zm-.15.124c1.27-.385 3.021-.553 4.822-.407 1.802.146 3.556.6 4.87 1.376l1.017-1.721c-1.656-.98-3.733-1.487-5.726-1.648-1.995-.162-4.005.014-5.562.485l.579 1.915zm9.618.922a.253.253 0 01-.1-.154l1.958-.407c-.09-.43-.337-.81-.694-1.065l-1.164 1.626zm-.1-.155a.253.253 0 01.03-.18l1.716 1.028c.225-.376.301-.824.212-1.254l-1.958.406zm.03-.181a.253.253 0 01.146-.113l.563 1.92c.421-.124.78-.402 1.006-.778L13.845 7.28zm.146-.113a.253.253 0 01.184.016l-.888 1.793c.394.195.846.234 1.267.11l-.563-1.919zm-1.26.913v.012h2V8.08h-2z" fill="#000" mask="url(#a)"/></svg>